<?xml version="1.0" standalone="no"?>
<!DOCTYPE svg PUBLIC "-//W3C//DTD SVG 20010904//EN"
 "http://www.w3.org/TR/2001/REC-SVG-20010904/DTD/svg10.dtd">
<svg version="1.0" xmlns="http://www.w3.org/2000/svg"
 width="500.000000pt" height="500.000000pt" viewBox="0 0 500.000000 500.000000"
 preserveAspectRatio="xMidYMid meet">
<metadata>
Created by potrace 1.14, written by Peter Selinger 2001-2017
</metadata>
<g transform="translate(0.000000,500.000000) scale(0.100000,-0.100000)"
fill="#000000" stroke="none">
<path d="M2769 4836 c7 -8 -6 -11 -42 -10 -29 0 -58 -4 -64 -9 -9 -6 -13 -5
-14 4 0 8 -4 5 -9 -6 -5 -11 -9 -14 -9 -7 -1 8 -7 6 -19 -5 -11 -10 -17 -21
-16 -24 2 -3 -14 -12 -36 -19 -22 -7 -37 -16 -35 -20 7 -11 -21 -43 -41 -47
-27 -6 -36 -5 -64 2 -49 14 -155 14 -165 1 -19 -24 -65 -48 -80 -42 -8 3 -15
1 -15 -4 0 -5 -6 -7 -14 -4 -7 3 -20 -1 -27 -9 -8 -7 -20 -12 -27 -9 -6 2 -12
-4 -12 -13 0 -10 -5 -13 -12 -9 -7 5 -9 2 -5 -9 4 -11 2 -14 -8 -11 -13 5 -22
0 -60 -34 -8 -7 -15 -11 -15 -8 0 3 -8 -2 -18 -11 -11 -10 -17 -21 -15 -25 2
-4 -5 -15 -17 -25 -11 -10 -20 -23 -20 -30 0 -7 -4 -13 -10 -13 -5 0 -10 -13
-10 -29 0 -16 -6 -32 -12 -34 -10 -4 -10 -6 0 -6 7 -1 12 -16 12 -40 0 -43
-19 -65 -59 -67 -14 -1 -36 -2 -49 -3 -19 -1 -21 -4 -13 -20 6 -10 7 -21 4
-25 -3 -3 -1 -6 6 -6 7 0 9 -5 6 -10 -4 -6 -2 -16 3 -23 6 -7 11 -16 12 -22 5
-23 15 -41 32 -59 23 -25 24 -4 2 29 -9 14 -13 25 -9 25 4 0 2 7 -5 15 -8 9
-10 25 -5 42 4 16 10 22 12 16 3 -7 14 -13 26 -13 11 0 18 -3 14 -6 -3 -4 4
-15 16 -25 12 -10 18 -18 14 -19 -4 0 2 -10 13 -22 11 -12 19 -29 17 -38 -3
-16 -10 -16 -40 -4 -17 6 -18 5 -6 -14 7 -11 15 -20 18 -20 29 3 33 -4 13 -18
-12 -8 -20 -19 -17 -24 5 -8 -23 -25 -37 -22 -5 1 -8 -1 -8 -6 0 -4 -15 -6
-32 -6 -43 2 -58 -11 -52 -44 7 -40 37 -95 54 -100 9 -3 7 2 -5 12 -13 10 -15
15 -6 16 10 0 11 3 2 13 -6 8 -8 17 -4 20 3 4 1 7 -5 7 -7 0 -12 7 -12 15 0 8
5 15 11 15 5 0 8 4 5 9 -9 14 37 21 53 8 12 -9 13 -9 7 1 -4 6 -3 12 1 12 11
0 43 -37 43 -50 0 -6 5 -10 11 -10 5 0 7 -4 4 -10 -3 -5 -1 -10 4 -10 6 0 11
-5 11 -11 0 -5 -4 -8 -9 -4 -9 5 -24 -26 -25 -53 -1 -7 -6 -16 -11 -20 -16
-11 -35 -61 -26 -66 5 -3 11 -17 13 -31 3 -13 1 -22 -3 -19 -5 3 -9 -4 -9 -16
0 -13 4 -19 11 -14 8 5 10 -1 7 -20 -3 -15 -3 -24 0 -21 9 8 32 -17 25 -28 -4
-6 -1 -7 6 -3 9 6 8 13 -6 29 -9 12 -11 17 -4 10 7 -6 19 -9 26 -7 7 3 16 1
20 -5 3 -6 0 -9 -8 -5 -11 4 -13 -7 -12 -51 1 -30 -2 -55 -7 -55 -4 0 -10 0
-13 0 -19 1 -66 -34 -61 -45 3 -8 1 -17 -5 -20 -13 -9 19 -61 44 -72 18 -8 16
-11 -20 -26 -26 -10 -42 -24 -46 -39 l-6 -23 19 22 c26 33 64 45 86 28 15 -11
16 -15 5 -29 -11 -13 -11 -16 0 -16 11 0 11 -2 -1 -10 -8 -5 -10 -10 -5 -10 6
0 3 -5 -5 -10 -11 -7 -12 -10 -2 -10 10 0 8 -10 -8 -37 l-21 -38 24 25 c13 14
23 28 21 32 -3 4 0 9 6 13 6 4 8 11 5 16 -4 5 -2 9 2 9 10 0 9 56 -1 88 -4 12
-12 20 -17 17 -5 -4 -12 1 -15 10 -4 9 -12 14 -18 12 -6 -3 -12 9 -13 28 -2
31 1 33 34 37 19 2 47 -2 61 -10 15 -7 28 -13 30 -12 2 1 6 -1 10 -4 3 -3 1
-6 -5 -6 -5 0 -10 -7 -10 -15 0 -8 7 -15 14 -15 8 0 12 4 9 9 -3 5 1 11 9 15
9 3 15 0 15 -10 0 -8 4 -13 10 -9 5 3 3 -6 -5 -21 -7 -15 -11 -34 -8 -43 4 -9
2 -13 -2 -9 -10 10 -34 -24 -32 -43 2 -8 6 -20 11 -27 7 -11 4 -12 -12 -3 -23
12 -29 7 -36 -32 -2 -15 -7 -31 -11 -37 -3 -6 1 -13 9 -16 9 -3 16 -13 16 -21
0 -9 5 -11 13 -7 8 5 7 2 -2 -9 -12 -15 -12 -19 4 -31 10 -7 15 -17 12 -23 -9
-15 35 -62 64 -67 18 -3 35 5 58 25 19 16 28 29 21 29 -7 0 -10 6 -7 14 3 8 1
17 -6 20 -7 3 -3 4 9 3 32 -3 56 21 43 44 -7 13 -6 26 4 45 l13 25 39 -35 c21
-20 42 -36 46 -36 4 0 5 -33 4 -72 -2 -40 -4 -83 -4 -95 -1 -20 -54 -83 -70
-83 -4 0 -20 -18 -37 -39 -16 -22 -38 -42 -49 -44 -11 -3 -60 -19 -110 -37
-111 -39 -225 -63 -225 -46 0 7 -3 7 -8 1 -4 -6 -25 -9 -47 -7 -138 10 -208
-2 -295 -51 -39 -22 -100 -80 -100 -97 0 -5 -4 -10 -10 -10 -5 0 -10 -6 -10
-14 0 -8 -6 -27 -14 -43 -26 -52 -57 -128 -61 -151 -2 -12 -7 -28 -11 -34 -5
-7 -9 -19 -10 -28 -1 -8 -8 -35 -17 -60 -9 -25 -19 -60 -22 -79 -3 -19 -8 -38
-12 -43 -3 -5 -7 -26 -8 -46 -2 -20 -4 -38 -6 -39 -3 -5 -7 -23 -8 -46 -1 -25
-35 -47 -71 -47 -11 0 -26 -12 -34 -27 -8 -16 -35 -46 -60 -68 -25 -22 -46
-45 -46 -52 0 -7 -4 -13 -9 -13 -10 0 -54 -96 -57 -127 -2 -12 -7 -31 -13 -41
-18 -34 -29 -100 -19 -110 10 -10 13 -95 4 -110 -6 -10 18 -35 38 -38 56 -10
81 -16 85 -19 2 -3 -11 -20 -30 -38 -19 -19 -52 -55 -74 -81 -22 -27 -48 -57
-58 -69 -9 -11 -17 -23 -17 -27 0 -3 -8 -15 -19 -26 -25 -28 -107 -166 -104
-176 2 -4 -2 -8 -8 -8 -5 0 -7 -4 -4 -10 3 -5 1 -10 -4 -10 -6 0 -11 -6 -11
-12 0 -7 -6 -25 -14 -39 -7 -14 -17 -39 -21 -55 -10 -35 -10 -35 -18 -54 -10
-25 -40 -134 -40 -147 0 -7 -3 -13 -6 -13 -3 0 -7 -16 -8 -36 -1 -20 -7 -42
-12 -47 -14 -14 -14 -30 0 -21 8 4 8 1 1 -12 -8 -17 18 -121 56 -224 10 -29 8
-55 -10 -110 -11 -30 -20 -67 -22 -82 l-3 -28 1854 0 1854 0 -30 32 c-35 37
-37 46 -17 62 8 6 32 45 53 87 38 74 39 81 38 165 -1 49 -6 109 -10 134 -4 25
-9 52 -10 60 -1 8 -5 29 -8 45 -4 17 -9 39 -11 50 -3 11 -19 67 -36 125 -17
58 -32 110 -34 117 -1 7 -5 16 -9 19 -4 4 -7 18 -7 30 0 13 -5 26 -10 29 -6 4
-8 11 -5 16 4 5 3 15 -1 21 -8 13 -10 20 -20 79 -4 27 -1 42 12 57 9 11 18 33
20 48 3 27 47 73 72 74 7 0 23 7 36 16 30 19 28 55 -4 89 -28 29 -30 89 -8
175 20 74 15 98 -30 140 -49 47 -85 61 -172 65 -40 2 -77 8 -83 14 -6 6 -8 11
-5 11 3 0 -3 33 -13 73 -11 39 -21 79 -23 87 -2 8 -16 49 -31 90 -15 41 -29
85 -32 98 -3 12 -9 25 -14 28 -5 3 -9 12 -9 19 0 20 -56 139 -77 166 -33 41
-113 114 -113 104 0 -3 -17 5 -37 18 -21 13 -49 28 -63 32 -22 7 -46 17 -160
68 -28 13 -152 88 -160 97 -9 11 -110 70 -120 70 -6 0 -10 5 -10 10 0 6 -6 10
-13 10 -14 0 -47 35 -47 50 0 5 -13 25 -30 43 -16 19 -30 37 -30 40 0 10 -59
65 -64 59 -5 -4 -56 99 -56 112 0 2 9 2 20 -1 11 -3 20 -12 20 -19 0 -8 3 -13
8 -12 4 2 8 -1 9 -6 0 -5 9 -14 19 -19 14 -8 22 -5 38 14 12 13 36 35 54 47
18 13 30 27 27 32 -3 5 2 13 10 17 9 6 17 26 19 49 1 22 6 46 11 54 6 9 4 11
-5 5 -9 -6 -11 2 -7 35 3 28 1 38 -6 31 -6 -6 -14 -5 -24 5 -12 12 -12 18 -3
29 7 8 10 15 7 15 -3 0 -1 14 5 31 6 16 13 28 16 25 3 -3 11 2 18 12 11 14 13
14 14 2 0 -10 3 -11 8 -3 10 16 48 21 45 6 -2 -7 6 -13 18 -13 11 0 18 -4 15
-9 -8 -12 36 -19 62 -10 12 5 22 5 22 0 0 -5 11 -7 24 -6 19 3 27 -3 35 -26 5
-16 15 -29 21 -29 6 0 8 -5 4 -12 -4 -6 -3 -8 4 -4 6 3 15 0 19 -9 8 -14 11
-14 28 0 15 11 16 14 4 9 -10 -3 -19 -1 -23 4 -6 10 24 10 41 -1 6 -4 14 0 17
9 5 13 9 14 21 4 12 -10 15 -10 15 0 0 10 3 10 15 0 11 -9 15 -10 15 -1 0 8 8
10 20 6 22 -7 24 9 5 31 -9 10 -77 10 -94 0 -10 -7 -71 25 -71 36 0 5 8 17 18
26 9 10 13 14 8 10 -6 -5 -15 -8 -20 -8 -6 0 5 10 24 22 45 29 61 44 53 52 -4
3 -3 6 1 6 4 0 14 -7 22 -15 11 -11 12 -15 3 -15 -7 0 -9 -3 -6 -6 4 -4 14 -1
22 6 13 11 16 11 13 -1 -2 -8 3 -13 10 -12 6 2 12 -2 12 -7 0 -6 5 -10 11 -10
5 0 7 5 3 11 -5 8 -1 8 13 0 22 -11 33 -6 33 16 0 10 -6 12 -20 8 -14 -5 -20
-2 -20 9 0 9 -8 16 -20 16 -17 0 -18 3 -10 26 9 22 8 25 -5 20 -9 -3 -13 -2
-10 4 3 6 13 10 21 10 8 0 12 5 9 10 -4 6 -1 17 5 25 7 8 9 15 5 15 -4 0 -2 6
4 14 9 11 9 16 0 22 -7 4 -9 3 -5 -4 3 -6 2 -14 -4 -17 -6 -4 -10 -3 -9 2 3
20 -2 25 -15 14 -11 -9 -14 -8 -12 6 0 10 -4 17 -11 16 -7 -2 -10 4 -7 12 4 8
10 15 16 15 5 0 6 4 3 10 -4 6 1 7 11 3 15 -6 15 -7 1 -18 -14 -10 -13 -13 6
-25 20 -12 21 -12 8 3 -7 10 -9 17 -3 17 5 0 12 -6 15 -14 6 -16 57 -10 57 8
0 6 4 4 9 -4 6 -8 8 -17 6 -20 -2 -4 2 -7 10 -7 8 0 12 4 9 9 -4 5 4 12 16 15
16 4 18 8 8 14 -10 7 -9 9 5 9 10 0 15 5 12 10 -4 6 -12 7 -18 4 -7 -4 -8 -3
-4 2 5 5 13 10 18 10 22 3 23 5 9 14 -13 8 -12 10 3 10 14 0 16 5 11 25 -4 15
-1 32 6 40 7 8 9 15 5 15 -4 0 -1 8 6 17 9 10 9 14 2 10 -7 -5 -19 3 -29 19
-15 22 -15 27 -3 36 11 8 10 9 -3 4 -10 -3 -18 -2 -19 2 0 4 -2 15 -4 25 -2 9
1 15 6 11 5 -3 7 -9 5 -13 -3 -4 1 -8 9 -8 11 0 11 4 -1 22 -8 12 -11 25 -7
28 3 4 1 7 -6 7 -8 0 -11 8 -8 20 3 11 1 23 -4 26 -5 3 -6 10 -3 16 5 7 12 5
20 -7 8 -11 19 -15 30 -11 17 7 11 21 -9 21 -7 0 -12 7 -12 15 0 8 -3 20 -7
25 -4 6 2 11 13 12 20 2 26 -12 9 -22 -5 -3 -10 -11 -10 -17 0 -6 3 -8 7 -5 3
4 14 0 23 -8 15 -13 17 -13 17 0 0 8 -5 15 -10 15 -5 0 -3 8 4 17 12 14 12 16
0 9 -9 -6 -12 -5 -9 5 3 8 11 13 18 11 11 -3 11 0 1 12 -7 8 -9 21 -5 27 4 8
3 9 -4 5 -16 -10 -15 7 1 23 10 11 10 13 0 7 -9 -5 -13 0 -13 14 0 12 5 18 10
15 6 -3 10 -1 10 4 0 6 -4 11 -10 11 -5 0 -10 5 -10 11 0 6 6 9 14 6 9 -4 13
2 12 16 -1 14 4 21 13 19 12 -3 12 0 1 12 -8 11 -9 16 -1 16 19 0 12 17 -8 23
-15 3 -18 11 -14 28 4 19 3 21 -6 9 -8 -11 -11 -12 -11 -2 0 8 -5 10 -12 6
-10 -6 -10 -4 0 7 14 15 16 33 3 25 -8 -6 -53 27 -52 38 3 20 -1 26 -15 26 -9
0 -12 5 -8 13 6 9 4 9 -8 -1 -18 -15 -48 -3 -79 31 -9 9 -22 17 -28 17 -7 0
-9 5 -6 10 3 6 1 10 -5 10 -6 0 -9 4 -6 9 3 5 -1 11 -9 15 -8 3 -15 12 -15 21
0 8 -4 15 -10 15 -5 0 -10 6 -10 14 0 8 -7 17 -16 20 -8 3 -12 10 -9 16 3 5 1
10 -4 10 -6 0 -11 9 -11 20 0 11 -7 20 -16 20 -9 0 -12 5 -8 13 4 6 4 9 -1 5
-4 -4 -15 -3 -22 4 -11 9 -17 9 -24 -3 -7 -11 -9 -11 -9 4 0 10 -5 15 -10 12
-6 -4 -8 -10 -5 -14 2 -5 -7 -13 -20 -19 -18 -8 -26 -8 -31 0 -5 7 -3 8 6 3 9
-6 11 -4 5 5 -6 10 -11 9 -22 -5 -12 -17 -18 -13 -14 8 1 5 -3 6 -7 3 -13 -8
-45 30 -37 43 4 7 0 8 -10 5 -9 -4 -15 -3 -14 2 4 21 -2 35 -11 29 -5 -3 -10
1 -10 9 0 14 -19 21 -44 17 -5 -1 -6 5 -2 14 4 11 1 15 -12 13 -10 -2 -16 2
-14 11 3 12 1 12 -14 0 -16 -13 -17 -12 -11 6 7 19 6 19 -7 2 -11 -15 -15 -15
-25 -3 -12 15 -28 16 -48 3 -6 -4 -15 -2 -19 4 -5 9 -11 7 -21 -6 -9 -14 -13
-15 -13 -4 0 12 -2 12 -9 0 -8 -13 -12 -13 -27 0 -16 13 -17 12 -10 -5 7 -20
7 -20 -15 0 -12 10 -19 13 -15 7 11 -19 -5 -15 -20 5 -10 12 -12 12 -9 2 4
-11 -3 -15 -30 -15 -19 0 -35 4 -35 11 0 6 -7 11 -15 11 -9 0 -11 -4 -6 -11z
m-841 -651 c-3 -3 -9 2 -12 12 -6 14 -5 15 5 6 7 -7 10 -15 7 -18z m1832 -99
c0 -3 -4 -8 -10 -11 -5 -3 -10 -1 -10 4 0 6 5 11 10 11 6 0 10 -2 10 -4z m-73
-241 c-4 -8 -1 -17 5 -21 6 -4 8 -3 4 4 -14 23 10 19 28 -5 l18 -25 -23 13
c-13 7 -25 12 -26 11 -12 -8 -21 1 -20 18 1 11 5 20 10 20 5 0 7 -7 4 -15z
m53 -59 c0 -3 -4 -8 -10 -11 -5 -3 -10 -1 -10 4 0 6 5 11 10 11 6 0 10 -2 10
-4z m-73 -21 c0 -8 -4 -12 -9 -9 -5 3 -6 10 -3 15 9 13 12 11 12 -6z m12 -71
c-14 -13 -16 -13 -16 0 0 8 5 12 10 9 7 -4 8 1 3 13 -6 15 -5 17 5 6 11 -10
10 -15 -2 -28z m-36 -1 c-7 -3 -13 -9 -13 -14 0 -6 5 -7 10 -4 6 3 10 1 10 -5
0 -7 -8 -9 -22 -4 -19 6 -21 4 -11 -7 10 -12 8 -15 -8 -15 -21 0 -25 11 -9 21
6 4 7 11 4 17 -4 6 -2 8 3 5 6 -4 16 0 23 8 7 9 16 13 19 9 3 -4 0 -9 -6 -11z
m-1693 -53 c0 -5 -5 -10 -11 -10 -5 0 -7 5 -4 10 3 6 8 10 11 10 2 0 4 -4 4
-10z m1621 -73 c-14 -14 -43 -18 -35 -6 3 5 10 6 16 3 7 -5 9 -1 5 9 -4 11 -2
14 9 10 11 -4 12 -9 5 -16z m-1591 -7 c0 -5 -5 -10 -11 -10 -5 0 -7 5 -4 10 3
6 8 10 11 10 2 0 4 -4 4 -10z m35 0 c-3 -5 -1 -10 5 -10 7 0 8 -6 0 -19 -7
-13 -7 -20 1 -23 5 -2 7 -11 4 -20 -6 -16 -8 -16 -26 1 -19 17 -17 51 2 51 5
0 8 3 8 8 -2 12 1 22 7 22 3 0 2 -4 -1 -10z m33 -125 c-3 -3 -9 2 -12 12 -6
14 -5 15 5 6 7 -7 10 -15 7 -18z m22 -95 c0 -5 -2 -10 -4 -10 -3 0 -8 5 -11
10 -3 6 -1 10 4 10 6 0 11 -4 11 -10z m978 -22 c-2 -7 4 -11 12 -10 8 2 11 0
7 -4 -13 -13 -37 -13 -37 0 0 12 9 26 17 26 2 0 2 -6 1 -12z m426 -2117 c6 -5
29 -14 51 -20 22 -7 47 -15 55 -18 8 -4 18 -7 23 -7 14 -2 44 -62 57 -116 7
-30 17 -61 23 -67 5 -7 7 -13 4 -13 -3 0 -1 -15 4 -32 6 -18 12 -44 15 -58 5
-23 96 -304 111 -340 28 -69 14 -129 -45 -189 -7 -8 -20 -25 -29 -38 -16 -24
-16 -24 -93 -9 -8 2 -22 5 -30 9 -8 3 -58 19 -110 37 -52 17 -102 34 -110 37
-8 4 -18 5 -22 5 -5 -1 -8 2 -8 7 0 5 -15 12 -32 16 -18 4 -40 10 -48 12 -8 2
-40 6 -70 8 -146 9 -160 16 -135 64 25 49 135 324 135 337 0 8 5 14 11 14 5 0
8 4 5 9 -3 4 4 25 14 47 11 21 20 42 20 47 0 5 6 23 14 40 8 18 27 66 42 107
15 41 31 79 36 85 4 5 8 16 8 25 0 32 20 40 58 24 20 -8 40 -18 46 -23z"/>
<path d="M3775 4310 c-3 -5 -1 -10 4 -10 6 0 11 5 11 10 0 6 -2 10 -4 10 -3 0
-8 -4 -11 -10z"/>
<path d="M3736 3838 c3 -5 10 -6 15 -3 13 9 11 12 -6 12 -8 0 -12 -4 -9 -9z"/>
<path d="M1983 3384 c4 -5 -2 -13 -14 -20 -14 -7 -18 -14 -10 -18 6 -4 11 -2
11 3 0 6 6 11 14 11 22 0 28 17 9 24 -10 4 -14 4 -10 0z"/>
</g>
</svg>
