<svg version="1.1" id="Layer_1" xmlns="http://www.w3.org/2000/svg" xmlns:xlink="http://www.w3.org/1999/xlink" x="0px" y="0px"
	 width="100%" viewBox="0 0 593 421" enable-background="new 0 0 593 421" xml:space="preserve">
<path fill="none" opacity="1.000000" stroke="none" 
	d="
M431.000000,422.000000 
	C287.333374,422.000000 144.166733,422.000000 1.000077,422.000000 
	C1.000051,281.666748 1.000051,141.333466 1.000026,1.000152 
	C198.666550,1.000101 396.333099,1.000101 593.999756,1.000051 
	C593.999817,141.333176 593.999817,281.666351 593.999878,421.999756 
	C539.833313,422.000000 485.666656,422.000000 431.000000,422.000000 
M146.185287,267.313812 
	C146.174393,279.194275 146.163498,291.074707 146.001495,303.883026 
	C146.003830,307.548065 145.968140,311.213654 146.018036,314.878052 
	C146.081680,319.551147 147.777008,323.115631 152.397186,325.101685 
	C156.470749,326.852814 160.186340,329.555023 164.358032,330.938599 
	C180.081909,336.153595 195.877411,341.169952 211.755157,345.894135 
	C217.134613,347.494690 222.811157,348.193481 228.397537,348.980957 
	C238.843689,350.453461 249.317017,351.740112 259.790253,353.011841 
	C273.856262,354.719788 287.910461,357.444885 302.010406,357.731262 
	C321.659485,358.130402 341.398865,357.337982 360.997589,355.775452 
	C373.269623,354.797028 385.430542,351.806580 397.501038,349.094604 
	C409.181580,346.470276 420.788544,343.383667 432.206146,339.794922 
	C436.321838,338.501312 442.002533,337.487427 442.889740,331.994690 
	C444.343628,322.993256 445.346985,313.884369 445.906006,304.781860 
	C446.605896,293.385010 446.586334,281.945648 447.042297,270.531250 
	C447.204926,266.460876 447.173706,262.190186 448.407227,258.393036 
	C451.494385,248.889435 451.671417,239.131042 451.950836,229.364151 
	C452.169922,221.705765 451.879883,214.033676 452.043365,206.372543 
	C452.152039,201.280472 452.470306,196.175674 453.035187,191.114563 
	C453.909882,183.277542 451.666748,177.374161 444.713196,172.814117 
	C436.469574,167.408020 427.722198,163.534653 418.292694,160.952713 
	C412.447266,159.352127 406.718750,157.186066 400.788147,156.065826 
	C390.624939,154.146042 380.344482,152.846802 369.907227,151.255585 
	C370.083527,149.933273 370.281677,148.478134 370.470978,147.021835 
	C371.646759,137.975952 373.269318,128.957764 373.834503,119.873802 
	C374.200775,113.986626 373.573669,108.202591 379.205170,104.279083 
	C379.654022,103.966347 379.733459,103.151901 380.039307,102.600998 
	C385.356354,93.023834 382.038269,83.437988 379.908600,73.911736 
	C379.653290,72.769714 378.033783,71.563698 376.794739,71.159653 
	C376.133148,70.943901 374.630554,72.181618 374.026825,73.103447 
	C370.964783,77.778748 368.128876,82.601425 365.106842,87.303757 
	C361.651337,92.680595 359.575073,98.217651 361.881195,104.695297 
	C362.287048,105.835266 361.931213,107.331543 361.669617,108.610611 
	C359.481079,119.311577 356.938599,129.950256 355.107391,140.710587 
	C353.934479,147.602768 354.054016,147.991425 347.057098,147.993225 
	C345.057617,147.993729 343.056427,147.947464 341.058990,148.013123 
	C331.096283,148.340622 332.156677,146.309952 333.294403,138.401810 
	C334.656769,128.932114 335.803375,119.630997 334.726532,110.103897 
	C334.655151,109.472191 335.366669,108.642616 335.892731,108.068901 
	C346.499207,96.501930 352.226379,83.813431 345.000305,68.208870 
	C344.427460,66.971802 343.206543,65.202103 342.244720,65.174995 
	C340.837433,65.135330 338.974487,66.105133 338.035889,67.245613 
	C334.205536,71.899750 330.462036,76.650955 327.043518,81.612358 
	C322.153656,88.709137 318.892090,96.256348 322.464447,105.100067 
	C322.863586,106.088173 322.999817,107.344521 322.798859,108.388092 
	C320.584473,119.888382 318.343781,131.384949 315.901978,142.838135 
	C315.647552,144.031708 314.093475,145.795975 313.077881,145.841034 
	C306.803833,146.119415 300.511322,145.980881 294.003387,145.980881 
	C294.003387,144.194778 293.759521,142.829437 294.041565,141.583099 
	C296.544312,130.523849 296.761780,119.352646 296.115051,108.092667 
	C296.001251,106.111267 296.439667,103.601578 297.614777,102.125267 
	C304.070068,94.015549 301.925049,84.340988 297.121826,76.619667 
	C294.775269,72.847549 292.295776,73.021400 290.008453,76.881042 
	C288.947815,78.670746 288.090118,80.580070 287.044159,82.379211 
	C283.233673,88.933678 279.559662,95.498459 282.096588,103.545654 
	C282.293823,104.171249 282.215332,104.930107 282.102753,105.599754 
	C281.089294,111.628944 279.879547,117.629951 279.044556,123.682991 
	C278.174164,129.992798 277.728912,136.360809 276.894501,142.676498 
	C276.782471,143.524323 275.529053,144.821640 274.724030,144.884537 
	C266.906769,145.495117 259.072388,145.886719 251.438049,146.329437 
	C251.161987,145.233582 251.084915,145.079010 251.090225,144.927322 
	C251.554214,131.668091 252.000229,118.408081 252.550934,105.152428 
	C252.586487,104.296547 253.278259,103.324455 253.924911,102.659348 
	C261.459839,94.909393 260.613708,82.093140 254.935242,73.523529 
	C252.723129,70.185112 249.132935,69.855774 247.423752,73.226860 
	C243.306610,81.347244 238.612854,89.199631 238.798920,98.996445 
	C238.899826,104.309181 236.688202,109.624565 236.066086,115.001961 
	C235.124542,123.140717 234.691666,131.337448 233.968506,139.502991 
	C233.797684,141.431732 233.591690,143.434631 232.906235,145.212296 
	C232.478287,146.322098 231.242767,147.680054 230.164246,147.894745 
	C216.092163,150.695862 201.854935,152.781952 187.926788,156.153168 
	C177.879227,158.585129 167.437759,161.443054 160.154999,169.514664 
	C153.117523,177.314453 148.886337,186.959076 146.112381,197.010178 
	C144.361755,203.353378 143.393799,209.999847 142.878571,216.573288 
	C142.315857,223.752518 142.185089,231.044312 142.762512,238.214844 
	C143.537643,247.840363 148.731140,256.859253 146.185287,267.313812 
z"/>
<path fill="#8A72B399" opacity="1.000000" stroke="none" 
	d="
M146.971466,266.902130 
	C148.731140,256.859253 143.537643,247.840363 142.762512,238.214844 
	C142.185089,231.044312 142.315857,223.752518 142.878571,216.573288 
	C143.393799,209.999847 144.361755,203.353378 146.112381,197.010178 
	C148.886337,186.959076 153.117523,177.314453 160.154999,169.514664 
	C167.437759,161.443054 177.879227,158.585129 187.926788,156.153168 
	C201.854935,152.781952 216.092163,150.695862 230.164246,147.894745 
	C231.242767,147.680054 232.478287,146.322098 232.906235,145.212296 
	C233.591690,143.434631 233.797684,141.431732 233.968506,139.502991 
	C234.691666,131.337448 235.124542,123.140717 236.066086,115.001961 
	C236.688202,109.624565 238.899826,104.309181 238.798920,98.996445 
	C238.612854,89.199631 243.306610,81.347244 247.423752,73.226860 
	C249.132935,69.855774 252.723129,70.185112 254.935242,73.523529 
	C260.613708,82.093140 261.459839,94.909393 253.924911,102.659348 
	C253.278259,103.324455 252.586487,104.296547 252.550934,105.152428 
	C252.000229,118.408081 251.554214,131.668091 251.090225,144.927322 
	C251.084915,145.079010 251.161987,145.233582 251.438049,146.329437 
	C259.072388,145.886719 266.906769,145.495117 274.724030,144.884537 
	C275.529053,144.821640 276.782471,143.524323 276.894501,142.676498 
	C277.728912,136.360809 278.174164,129.992798 279.044556,123.682991 
	C279.879547,117.629951 281.089294,111.628944 282.102753,105.599754 
	C282.215332,104.930107 282.293823,104.171249 282.096588,103.545654 
	C279.559662,95.498459 283.233673,88.933678 287.044159,82.379211 
	C288.090118,80.580070 288.947815,78.670746 290.008453,76.881042 
	C292.295776,73.021400 294.775269,72.847549 297.121826,76.619667 
	C301.925049,84.340988 304.070068,94.015549 297.614777,102.125267 
	C296.439667,103.601578 296.001251,106.111267 296.115051,108.092667 
	C296.761780,119.352646 296.544312,130.523849 294.041565,141.583099 
	C293.759521,142.829437 294.003387,144.194778 294.003387,145.980881 
	C300.511322,145.980881 306.803833,146.119415 313.077881,145.841034 
	C314.093475,145.795975 315.647552,144.031708 315.901978,142.838135 
	C318.343781,131.384949 320.584473,119.888382 322.798859,108.388092 
	C322.999817,107.344521 322.863586,106.088173 322.464447,105.100067 
	C318.892090,96.256348 322.153656,88.709137 327.043518,81.612358 
	C330.462036,76.650955 334.205536,71.899750 338.035889,67.245613 
	C338.974487,66.105133 340.837433,65.135330 342.244720,65.174995 
	C343.206543,65.202103 344.427460,66.971802 345.000305,68.208870 
	C352.226379,83.813431 346.499207,96.501930 335.892731,108.068901 
	C335.366669,108.642616 334.655151,109.472191 334.726532,110.103897 
	C335.803375,119.630997 334.656769,128.932114 333.294403,138.401810 
	C332.156677,146.309952 331.096283,148.340622 341.058990,148.013123 
	C343.056427,147.947464 345.057617,147.993729 347.057098,147.993225 
	C354.054016,147.991425 353.934479,147.602768 355.107391,140.710587 
	C356.938599,129.950256 359.481079,119.311577 361.669617,108.610611 
	C361.931213,107.331543 362.287048,105.835266 361.881195,104.695297 
	C359.575073,98.217651 361.651337,92.680595 365.106842,87.303757 
	C368.128876,82.601425 370.964783,77.778748 374.026825,73.103447 
	C374.630554,72.181618 376.133148,70.943901 376.794739,71.159653 
	C378.033783,71.563698 379.653290,72.769714 379.908600,73.911736 
	C382.038269,83.437988 385.356354,93.023834 380.039307,102.600998 
	C379.733459,103.151901 379.654022,103.966347 379.205170,104.279083 
	C373.573669,108.202591 374.200775,113.986626 373.834503,119.873802 
	C373.269318,128.957764 371.646759,137.975952 370.470978,147.021835 
	C370.281677,148.478134 370.083527,149.933273 369.907227,151.255585 
	C380.344482,152.846802 390.624939,154.146042 400.788147,156.065826 
	C406.718750,157.186066 412.447266,159.352127 418.292694,160.952713 
	C427.722198,163.534653 436.469574,167.408020 444.713196,172.814117 
	C451.666748,177.374161 453.909882,183.277542 453.035187,191.114563 
	C452.470306,196.175674 452.152039,201.280472 452.043365,206.372543 
	C451.879883,214.033676 452.169922,221.705765 451.950836,229.364151 
	C451.671417,239.131042 451.494385,248.889435 448.407227,258.393036 
	C447.173706,262.190186 447.204926,266.460876 447.042297,270.531250 
	C446.586334,281.945648 446.605896,293.385010 445.906006,304.781860 
	C445.346985,313.884369 444.343628,322.993256 442.889740,331.994690 
	C442.002533,337.487427 436.321838,338.501312 432.206146,339.794922 
	C420.788544,343.383667 409.181580,346.470276 397.501038,349.094604 
	C385.430542,351.806580 373.269623,354.797028 360.997589,355.775452 
	C341.398865,357.337982 321.659485,358.130402 302.010406,357.731262 
	C287.910461,357.444885 273.856262,354.719788 259.790253,353.011841 
	C249.317017,351.740112 238.843689,350.453461 228.397537,348.980957 
	C222.811157,348.193481 217.134613,347.494690 211.755157,345.894135 
	C195.877411,341.169952 180.081909,336.153595 164.358032,330.938599 
	C160.186340,329.555023 156.470749,326.852814 152.397186,325.101685 
	C147.777008,323.115631 146.081680,319.551147 146.018036,314.878052 
	C145.968140,311.213654 146.003830,307.548065 146.336060,303.100525 
	C146.770889,290.512726 146.871185,278.707428 146.971466,266.902130 
M318.308563,327.007385 
	C316.547333,327.286865 314.786072,327.566315 312.225189,328.010132 
	C311.142303,327.955444 310.059448,327.900787 308.522858,327.400635 
	C307.356842,327.548615 306.190826,327.696594 304.172394,328.008301 
	C302.441193,327.953918 300.710022,327.899536 298.791809,327.571075 
	C298.461639,327.381317 298.204681,327.473328 297.190918,328.012695 
	C295.785706,327.957153 294.380524,327.901611 292.342010,327.345947 
	C289.190338,327.242950 286.038635,327.139954 281.964417,327.002594 
	C237.641739,326.905457 194.404556,320.876465 153.013962,302.224060 
	C153.013962,306.928833 153.198105,310.426086 152.958176,313.894043 
	C152.750259,316.899139 153.652588,318.804932 156.520599,320.035828 
	C164.002014,323.246674 171.175446,327.360840 178.886002,329.810913 
	C192.239777,334.054169 205.783707,337.885742 219.477341,340.818665 
	C232.407867,343.588135 245.787994,344.283356 258.692078,347.145569 
	C276.121582,351.011505 293.820892,351.274628 311.392914,351.688080 
	C328.602875,352.092926 345.894958,350.252197 363.106262,348.848114 
	C372.265961,348.100922 381.471680,346.784668 390.405060,344.665070 
	C403.271698,341.612244 415.948914,337.725067 428.615051,333.890350 
	C431.553741,333.000641 435.988281,331.355621 436.519470,329.247864 
	C438.317261,322.114197 438.671631,314.616760 439.655823,306.623810 
	C430.399841,308.689606 422.285980,309.986908 414.493103,312.345032 
	C397.492523,317.489380 380.318909,321.511810 362.585297,323.027649 
	C348.087402,324.266937 333.605530,325.694031 318.308563,327.007385 
M338.312897,263.005463 
	C347.472717,264.821045 352.490021,271.111908 356.048492,279.149170 
	C358.693298,285.122833 361.569275,290.997314 364.463379,296.856171 
	C366.198883,300.369598 369.153534,304.275848 372.876434,302.564819 
	C375.722107,301.256897 377.091431,296.601471 378.924866,293.327209 
	C379.352539,292.563446 379.005035,291.362640 379.005005,290.362915 
	C379.004669,283.364807 379.311005,276.348389 378.897980,269.374634 
	C378.591431,264.198883 380.283264,259.930237 382.979492,255.829575 
	C388.817841,246.949966 399.928986,243.721344 409.183197,248.727524 
	C415.372589,252.075729 420.994202,256.463867 427.136688,259.911285 
	C432.201447,262.753815 438.122620,260.119781 441.052795,255.124802 
	C445.650269,247.287613 444.830750,238.451981 445.735016,230.094055 
	C446.821838,220.048294 445.991943,209.795166 445.991943,199.420547 
	C445.007355,199.757431 444.097900,200.011627 443.233521,200.373398 
	C436.377594,203.242737 429.742218,206.925308 422.629761,208.827240 
	C412.375061,211.569366 401.845612,213.581192 391.307678,214.899307 
	C374.290253,217.027924 357.200531,218.883926 340.084686,219.827286 
	C325.466187,220.632980 310.766998,220.099991 296.105682,219.946625 
	C289.349365,219.875961 282.572571,219.557770 275.850830,218.890610 
	C264.823242,217.796082 253.829269,216.355896 242.828476,215.001862 
	C236.529572,214.226562 230.193161,213.607468 223.967087,212.425690 
	C215.793686,210.874313 207.623199,209.158035 199.614044,206.928635 
	C189.663605,204.158859 179.406494,202.025864 170.586548,196.185440 
	C165.970978,193.129089 161.485077,189.876938 156.719681,186.559418 
	C156.448578,187.551895 156.257446,188.635117 155.863083,189.638458 
	C148.739044,207.763550 145.073471,226.285675 151.129578,245.404343 
	C154.046860,254.613907 158.526779,261.716522 170.713898,253.888245 
	C174.546814,251.426208 178.946075,249.414398 183.362305,248.405746 
	C188.408188,247.253265 194.737549,246.463455 198.020248,251.154495 
	C201.946335,256.764984 204.462509,263.472656 206.943619,269.952393 
	C209.379349,276.313568 210.470352,283.221619 213.213974,289.419342 
	C214.569305,292.480957 218.001907,295.626007 221.115433,296.486237 
	C222.688522,296.920868 225.814911,292.496124 227.902786,289.988647 
	C228.974106,288.702026 229.265228,286.781799 229.980408,285.179810 
	C232.909073,278.619659 235.812958,272.047638 238.828079,265.527161 
	C241.182953,260.434479 245.373306,256.536011 250.405991,255.191025 
	C261.198517,252.306717 269.871490,257.193634 275.099640,267.257294 
	C279.310883,275.363495 279.312378,284.321472 280.991302,292.944763 
	C283.543732,306.054382 291.220215,310.956543 302.292267,304.696442 
	C308.514740,301.178253 310.906250,294.468750 312.002441,287.501221 
	C312.704163,283.041016 312.766663,278.296356 314.422913,274.208893 
	C317.785553,265.910278 328.313629,259.965302 338.312897,263.005463 
M310.906281,186.400070 
	C310.605865,185.508392 309.954498,184.573181 310.058899,183.731766 
	C311.177307,174.719299 312.427429,165.723267 313.608246,156.718384 
	C313.804565,155.221222 313.841766,153.703171 313.954010,152.174316 
	C306.637421,152.174316 300.005920,152.174316 293.137146,152.174316 
	C291.749359,160.378937 290.450256,168.476105 288.975891,176.541245 
	C288.484711,179.227890 288.363251,182.513519 284.623840,182.953461 
	C280.364563,183.454559 273.204773,180.239105 273.074524,177.659882 
	C272.882965,173.866486 273.030762,170.025330 273.407593,166.241730 
	C273.866699,161.632141 274.713226,157.061142 275.533447,151.518646 
	C270.599030,152.078812 266.742432,152.699768 262.863708,152.907028 
	C258.734802,153.127655 254.584976,152.956650 248.993607,152.956650 
	C248.993607,159.671646 249.001282,166.014633 248.991562,172.357590 
	C248.980499,179.586441 246.437424,181.588470 239.482452,179.830322 
	C238.716080,179.636581 237.972870,178.995392 237.250153,179.042404 
	C232.503143,179.350967 231.859970,176.530930 231.964279,172.704285 
	C232.121918,166.921661 232.005402,161.131561 232.005402,154.997147 
	C229.726212,154.997147 227.871323,154.712494 226.133698,155.043442 
	C215.068176,157.151031 204.030212,159.403061 192.979782,161.590317 
	C183.143082,163.537338 174.072220,167.263687 165.848343,173.047501 
	C161.224579,176.299393 160.564224,180.089920 164.620697,183.971970 
	C167.401611,186.633316 170.530411,189.219452 173.972229,190.850540 
	C186.871262,196.963455 200.396332,201.388809 214.454559,203.926483 
	C225.103104,205.848679 235.817383,207.432388 246.534210,208.940857 
	C252.987625,209.849228 259.506805,210.281174 265.987640,211.005890 
	C274.572815,211.965927 283.139954,213.739151 291.731628,213.848969 
	C308.144043,214.058777 324.573914,213.505234 340.985657,212.948120 
	C351.826508,212.580154 362.687958,212.024414 373.467987,210.875381 
	C384.904358,209.656387 396.360535,208.146667 407.614502,205.825424 
	C419.289062,203.417480 431.041718,200.889267 441.041321,193.498215 
	C448.109131,188.274155 448.527527,187.339294 443.160309,180.676773 
	C442.198853,179.483276 441.142975,178.089432 439.815735,177.511597 
	C430.772278,173.574417 421.908813,168.882263 412.479828,166.255234 
	C399.512665,162.642456 386.036926,160.893143 372.912079,157.784012 
	C369.236877,156.913406 368.414124,157.260162 367.920563,160.918823 
	C366.911163,168.401169 365.576324,175.861420 363.864502,183.211761 
	C363.439209,185.037949 361.194214,187.598633 359.561462,187.777664 
	C353.629364,188.428085 348.612640,185.829269 348.039886,182.700104 
	C347.951324,182.216553 347.939331,181.684494 348.040253,181.206161 
	C348.936096,176.960052 350.094727,172.754562 350.721313,168.470596 
	C351.368408,164.046616 351.507843,159.548386 351.856354,155.243500 
	C344.942749,154.430252 338.677521,153.693283 332.117920,152.921677 
	C330.694702,162.436356 329.604492,171.590363 327.830505,180.609863 
	C327.177490,183.930130 327.637573,189.169189 321.901703,188.912521 
	C318.416901,188.756592 314.972809,187.691544 310.906281,186.400070 
M237.645355,292.014496 
	C235.170654,291.567261 234.115982,292.804749 232.973450,294.968903 
	C227.258850,305.793213 216.529572,305.596924 210.031418,297.481262 
	C208.349396,295.380554 207.688171,292.428802 205.912109,290.446838 
	C204.233093,288.573151 201.891678,286.792419 199.518021,286.129547 
	C189.855896,283.431305 180.029312,281.326569 170.344101,278.704742 
	C164.590866,277.147339 158.988144,275.033875 153.024368,273.074005 
	C153.024368,279.666046 152.841522,285.832642 153.155441,291.973846 
	C153.232056,293.472839 154.612228,295.618622 155.951248,296.216125 
	C161.761230,298.808685 167.701111,301.167725 173.736328,303.185150 
	C184.017441,306.621918 194.255600,310.393066 204.790527,312.807587 
	C215.633514,315.292755 226.774796,316.623413 237.848969,317.916046 
	C251.976624,319.565063 266.144501,321.090668 280.338989,321.876923 
	C291.968567,322.521088 303.663696,322.108765 315.327087,321.956848 
	C320.584320,321.888336 325.859070,321.523773 331.083496,320.924286 
	C341.272614,319.755157 351.442078,318.399292 361.600494,316.983032 
	C370.891388,315.687714 380.271454,314.725739 389.407257,312.694885 
	C403.623016,309.534851 417.695068,305.704376 431.756256,301.893219 
	C434.653656,301.107910 439.029877,299.671387 439.606720,297.646729 
	C440.997314,292.765900 440.542755,287.359344 440.826263,282.274292 
	C433.912506,283.844269 427.248230,285.581696 420.494110,286.834991 
	C411.911438,288.427582 403.290253,289.934448 394.621521,290.904938 
	C386.992065,291.759064 386.665131,291.772949 383.995148,299.465607 
	C381.237671,307.410309 374.952759,313.436707 365.399933,307.814392 
	C361.877441,305.741241 359.309174,301.593079 357.094147,297.916290 
	C355.682434,295.572968 354.412109,294.845184 351.865051,294.949646 
	C341.115173,295.390625 330.353424,295.565521 319.609924,296.110992 
	C318.272003,296.178955 316.785309,297.678284 315.768036,298.859314 
	C313.023315,302.045929 311.073944,306.269196 307.753143,308.530762 
	C301.869568,312.537659 295.727814,315.785126 287.636139,312.511658 
	C279.310486,309.143524 276.944672,302.281982 274.368042,295.419403 
	C262.337952,294.276764 250.432098,293.145905 237.645355,292.014496 
M385.333893,280.857910 
	C385.721710,282.470520 386.109528,284.083130 386.626953,286.234711 
	C404.826202,282.813751 422.855499,279.424744 440.893097,276.034180 
	C440.893097,272.138519 440.893097,268.830597 440.893097,265.513092 
	C431.891998,268.070251 430.798981,269.289215 421.512817,264.066254 
	C416.629974,261.319916 412.147400,257.869507 407.323547,255.007721 
	C404.579437,253.379745 402.080170,251.367142 398.108978,252.883118 
	C389.596008,256.132874 385.241974,262.875183 385.013947,270.517914 
	C384.919617,273.678772 385.014496,276.845306 385.333893,280.857910 
M271.001709,275.434448 
	C269.421844,272.550293 267.838776,269.667847 266.262695,266.781616 
	C261.808014,258.623779 251.924973,258.453247 247.416763,265.323334 
	C243.402954,271.440094 240.272217,278.136261 236.104156,285.761414 
	C249.242462,287.041382 260.928711,288.179901 273.710358,289.425140 
	C272.871735,284.294342 272.201355,280.192841 271.001709,275.434448 
M153.062363,263.357666 
	C154.436295,264.570770 155.626923,266.177002 157.220108,266.919891 
	C161.262985,268.804932 165.381180,270.675354 169.658096,271.882538 
	C180.207550,274.860291 190.863007,277.462555 202.997147,280.610413 
	C200.742050,273.342133 199.233994,267.169952 196.884079,261.336914 
	C195.112106,256.938507 192.439911,252.523819 186.364426,254.067139 
	C183.966522,254.676285 181.666031,255.885315 179.492279,257.121948 
	C171.342911,261.757904 163.133057,265.705048 153.552643,261.271332 
	C153.376434,261.706848 153.200226,262.142365 153.062363,263.357666 
M344.975250,274.561859 
	C336.443817,265.953369 326.200928,266.743317 320.895050,276.952240 
	C318.986389,280.624603 318.910522,285.249542 318.048615,289.208435 
	C329.701782,289.208435 341.262878,289.208435 354.016083,289.208435 
	C350.738953,283.755188 348.128296,279.410950 344.975250,274.561859 
M240.016251,140.528229 
	C239.155319,151.259766 238.294388,161.991318 237.433456,172.722855 
	C237.986969,173.001999 238.540482,173.281143 239.093994,173.560287 
	C240.057648,172.734985 241.717621,172.016785 241.863907,171.065765 
	C242.483459,167.037827 242.636490,162.939240 242.990677,158.869156 
	C243.726654,150.412079 244.436584,141.952377 245.242981,133.501938 
	C245.983521,125.741608 246.836609,117.992012 247.597107,110.652771 
	C242.457809,108.575706 242.389999,112.458885 242.183411,114.165077 
	C241.161850,122.602005 240.673203,131.103455 240.016251,140.528229 
M321.973328,174.381561 
	C323.343750,165.445404 324.895233,156.532318 326.038239,147.567169 
	C327.432922,136.628174 328.484436,125.645439 329.684387,114.681625 
	C329.087341,114.596497 328.490295,114.511368 327.893250,114.426239 
	C322.157776,136.449860 319.844330,159.115524 316.127563,181.713745 
	C317.721039,181.713745 319.261353,181.713745 320.487671,181.713745 
	C321.024780,179.337814 321.484100,177.305801 321.973328,174.381561 
M290.012177,122.431213 
	C290.012177,118.347687 290.012177,114.264168 290.012177,109.169632 
	C288.499054,110.486717 287.309021,111.007126 287.218933,111.675797 
	C284.421051,132.433838 281.713043,153.204163 279.106720,173.987091 
	C279.026550,174.626343 280.173950,175.419525 281.692505,177.324417 
	C286.291473,158.797867 288.102325,141.090057 290.012177,122.431213 
M362.985535,134.230545 
	C360.260071,149.701309 357.534607,165.172073 354.809143,180.642838 
	C355.340698,180.919281 355.872223,181.195724 356.403778,181.472168 
	C357.271088,180.327347 358.573822,179.292862 358.898804,178.010605 
	C359.334076,176.292999 358.735779,174.333023 359.058899,172.564362 
	C361.973206,156.612717 365.083252,140.696274 367.901367,124.728119 
	C368.449402,121.622849 367.980164,118.338043 367.980164,115.136055 
	C367.347412,115.059052 366.714691,114.982040 366.081940,114.905037 
	C365.051086,121.050797 364.020233,127.196556 362.985535,134.230545 
M341.963562,83.283318 
	C341.775543,80.620529 341.587494,77.957748 341.316772,74.123955 
	C337.569763,79.130661 334.655060,82.638092 332.173676,86.429184 
	C328.184082,92.524536 326.001709,96.493980 330.577423,106.177155 
	C334.714447,98.183548 338.344299,91.169876 341.963562,83.283318 
M369.052399,93.817886 
	C368.157166,97.476997 365.309235,101.200775 369.412628,104.694328 
	C375.862122,99.079544 377.320618,94.132126 375.248413,83.898293 
	C373.144104,87.216812 371.272675,90.168114 369.052399,93.817886 
M246.053284,91.872818 
	C244.501404,97.603897 244.569946,98.843925 246.574722,101.503365 
	C250.946075,95.723854 255.532959,89.995705 251.011505,81.437347 
	C249.315033,84.988884 247.850739,88.054375 246.053284,91.872818 
M290.461578,90.091377 
	C288.586700,93.762421 286.879181,97.447823 289.383698,101.348541 
	C293.833252,96.902496 296.981628,92.012871 293.432556,84.195541 
	C292.288757,86.696053 291.642517,88.108894 290.461578,90.091377 
z"/>
<path fill="#FDF8FD" opacity="1.000000" stroke="none" 
	d="
M146.578369,267.107971 
	C146.871185,278.707428 146.770889,290.512726 146.411606,302.636597 
	C146.163498,291.074707 146.174393,279.194275 146.578369,267.107971 
z"/>
<path fill="none" opacity="1.000000" stroke="none" 
	d="
M337.884186,263.010071 
	C328.313629,259.965302 317.785553,265.910278 314.422913,274.208893 
	C312.766663,278.296356 312.704163,283.041016 312.002441,287.501221 
	C310.906250,294.468750 308.514740,301.178253 302.292267,304.696442 
	C291.220215,310.956543 283.543732,306.054382 280.991302,292.944763 
	C279.312378,284.321472 279.310883,275.363495 275.099640,267.257294 
	C269.871490,257.193634 261.198517,252.306717 250.405991,255.191025 
	C245.373306,256.536011 241.182953,260.434479 238.828079,265.527161 
	C235.812958,272.047638 232.909073,278.619659 229.980408,285.179810 
	C229.265228,286.781799 228.974106,288.702026 227.902786,289.988647 
	C225.814911,292.496124 222.688522,296.920868 221.115433,296.486237 
	C218.001907,295.626007 214.569305,292.480957 213.213974,289.419342 
	C210.470352,283.221619 209.379349,276.313568 206.943619,269.952393 
	C204.462509,263.472656 201.946335,256.764984 198.020248,251.154495 
	C194.737549,246.463455 188.408188,247.253265 183.362305,248.405746 
	C178.946075,249.414398 174.546814,251.426208 170.713898,253.888245 
	C158.526779,261.716522 154.046860,254.613907 151.129578,245.404343 
	C145.073471,226.285675 148.739044,207.763550 155.863083,189.638458 
	C156.257446,188.635117 156.448578,187.551895 156.719681,186.559418 
	C161.485077,189.876938 165.970978,193.129089 170.586548,196.185440 
	C179.406494,202.025864 189.663605,204.158859 199.614044,206.928635 
	C207.623199,209.158035 215.793686,210.874313 223.967087,212.425690 
	C230.193161,213.607468 236.529572,214.226562 242.828476,215.001862 
	C253.829269,216.355896 264.823242,217.796082 275.850830,218.890610 
	C282.572571,219.557770 289.349365,219.875961 296.105682,219.946625 
	C310.766998,220.099991 325.466187,220.632980 340.084686,219.827286 
	C357.200531,218.883926 374.290253,217.027924 391.307678,214.899307 
	C401.845612,213.581192 412.375061,211.569366 422.629761,208.827240 
	C429.742218,206.925308 436.377594,203.242737 443.233521,200.373398 
	C444.097900,200.011627 445.007355,199.757431 445.991943,199.420547 
	C445.991943,209.795166 446.821838,220.048294 445.735016,230.094055 
	C444.830750,238.451981 445.650269,247.287613 441.052795,255.124802 
	C438.122620,260.119781 432.201447,262.753815 427.136688,259.911285 
	C420.994202,256.463867 415.372589,252.075729 409.183197,248.727524 
	C399.928986,243.721344 388.817841,246.949966 382.979492,255.829575 
	C380.283264,259.930237 378.591431,264.198883 378.897980,269.374634 
	C379.311005,276.348389 379.004669,283.364807 379.005005,290.362915 
	C379.005035,291.362640 379.352539,292.563446 378.924866,293.327209 
	C377.091431,296.601471 375.722107,301.256897 372.876434,302.564819 
	C369.153534,304.275848 366.198883,300.369598 364.463379,296.856171 
	C361.569275,290.997314 358.693298,285.122833 356.048492,279.149170 
	C352.490021,271.111908 347.472717,264.821045 337.884186,263.010071 
z"/>
<path fill="none" opacity="1.000000" stroke="none" 
	d="
M311.208344,186.717484 
	C314.972809,187.691544 318.416901,188.756592 321.901703,188.912521 
	C327.637573,189.169189 327.177490,183.930130 327.830505,180.609863 
	C329.604492,171.590363 330.694702,162.436356 332.117920,152.921677 
	C338.677521,153.693283 344.942749,154.430252 351.856354,155.243500 
	C351.507843,159.548386 351.368408,164.046616 350.721313,168.470596 
	C350.094727,172.754562 348.936096,176.960052 348.040253,181.206161 
	C347.939331,181.684494 347.951324,182.216553 348.039886,182.700104 
	C348.612640,185.829269 353.629364,188.428085 359.561462,187.777664 
	C361.194214,187.598633 363.439209,185.037949 363.864502,183.211761 
	C365.576324,175.861420 366.911163,168.401169 367.920563,160.918823 
	C368.414124,157.260162 369.236877,156.913406 372.912079,157.784012 
	C386.036926,160.893143 399.512665,162.642456 412.479828,166.255234 
	C421.908813,168.882263 430.772278,173.574417 439.815735,177.511597 
	C441.142975,178.089432 442.198853,179.483276 443.160309,180.676773 
	C448.527527,187.339294 448.109131,188.274155 441.041321,193.498215 
	C431.041718,200.889267 419.289062,203.417480 407.614502,205.825424 
	C396.360535,208.146667 384.904358,209.656387 373.467987,210.875381 
	C362.687958,212.024414 351.826508,212.580154 340.985657,212.948120 
	C324.573914,213.505234 308.144043,214.058777 291.731628,213.848969 
	C283.139954,213.739151 274.572815,211.965927 265.987640,211.005890 
	C259.506805,210.281174 252.987625,209.849228 246.534210,208.940857 
	C235.817383,207.432388 225.103104,205.848679 214.454559,203.926483 
	C200.396332,201.388809 186.871262,196.963455 173.972229,190.850540 
	C170.530411,189.219452 167.401611,186.633316 164.620697,183.971970 
	C160.564224,180.089920 161.224579,176.299393 165.848343,173.047501 
	C174.072220,167.263687 183.143082,163.537338 192.979782,161.590317 
	C204.030212,159.403061 215.068176,157.151031 226.133698,155.043442 
	C227.871323,154.712494 229.726212,154.997147 232.005402,154.997147 
	C232.005402,161.131561 232.121918,166.921661 231.964279,172.704285 
	C231.859970,176.530930 232.503143,179.350967 237.250153,179.042404 
	C237.972870,178.995392 238.716080,179.636581 239.482452,179.830322 
	C246.437424,181.588470 248.980499,179.586441 248.991562,172.357590 
	C249.001282,166.014633 248.993607,159.671646 248.993607,152.956650 
	C254.584976,152.956650 258.734802,153.127655 262.863708,152.907028 
	C266.742432,152.699768 270.599030,152.078812 275.533447,151.518646 
	C274.713226,157.061142 273.866699,161.632141 273.407593,166.241730 
	C273.030762,170.025330 272.882965,173.866486 273.074524,177.659882 
	C273.204773,180.239105 280.364563,183.454559 284.623840,182.953461 
	C288.363251,182.513519 288.484711,179.227890 288.975891,176.541245 
	C290.450256,168.476105 291.749359,160.378937 293.137146,152.174316 
	C300.005920,152.174316 306.637421,152.174316 313.954010,152.174316 
	C313.841766,153.703171 313.804565,155.221222 313.608246,156.718384 
	C312.427429,165.723267 311.177307,174.719299 310.058899,183.731766 
	C309.954498,184.573181 310.605865,185.508392 311.208344,186.717484 
z"/>
<path fill="none" opacity="1.000000" stroke="none" 
	d="
M292.975311,327.846069 
	C294.380524,327.901611 295.785706,327.957153 297.845520,327.991180 
	C298.500153,327.969666 298.978821,327.845154 298.978821,327.845154 
	C300.710022,327.899536 302.441193,327.953918 304.990204,327.994843 
	C306.864197,327.936310 307.920380,327.891235 308.976562,327.846130 
	C310.059448,327.900787 311.142303,327.955444 313.033813,327.994568 
	C315.600494,327.665283 317.358551,327.351562 319.116577,327.037842 
	C333.605530,325.694031 348.087402,324.266937 362.585297,323.027649 
	C380.318909,321.511810 397.492523,317.489380 414.493103,312.345032 
	C422.285980,309.986908 430.399841,308.689606 439.655823,306.623810 
	C438.671631,314.616760 438.317261,322.114197 436.519470,329.247864 
	C435.988281,331.355621 431.553741,333.000641 428.615051,333.890350 
	C415.948914,337.725067 403.271698,341.612244 390.405060,344.665070 
	C381.471680,346.784668 372.265961,348.100922 363.106262,348.848114 
	C345.894958,350.252197 328.602875,352.092926 311.392914,351.688080 
	C293.820892,351.274628 276.121582,351.011505 258.692078,347.145569 
	C245.787994,344.283356 232.407867,343.588135 219.477341,340.818665 
	C205.783707,337.885742 192.239777,334.054169 178.886002,329.810913 
	C171.175446,327.360840 164.002014,323.246674 156.520599,320.035828 
	C153.652588,318.804932 152.750259,316.899139 152.958176,313.894043 
	C153.198105,310.426086 153.013962,306.928833 153.013962,302.224060 
	C194.404556,320.876465 237.641739,326.905457 282.622620,327.406555 
	C286.512329,327.822357 289.743805,327.834198 292.975311,327.846069 
z"/>
<path fill="none" opacity="1.000000" stroke="none" 
	d="
M238.085800,292.014771 
	C250.432098,293.145905 262.337952,294.276764 274.368042,295.419403 
	C276.944672,302.281982 279.310486,309.143524 287.636139,312.511658 
	C295.727814,315.785126 301.869568,312.537659 307.753143,308.530762 
	C311.073944,306.269196 313.023315,302.045929 315.768036,298.859314 
	C316.785309,297.678284 318.272003,296.178955 319.609924,296.110992 
	C330.353424,295.565521 341.115173,295.390625 351.865051,294.949646 
	C354.412109,294.845184 355.682434,295.572968 357.094147,297.916290 
	C359.309174,301.593079 361.877441,305.741241 365.399933,307.814392 
	C374.952759,313.436707 381.237671,307.410309 383.995148,299.465607 
	C386.665131,291.772949 386.992065,291.759064 394.621521,290.904938 
	C403.290253,289.934448 411.911438,288.427582 420.494110,286.834991 
	C427.248230,285.581696 433.912506,283.844269 440.826263,282.274292 
	C440.542755,287.359344 440.997314,292.765900 439.606720,297.646729 
	C439.029877,299.671387 434.653656,301.107910 431.756256,301.893219 
	C417.695068,305.704376 403.623016,309.534851 389.407257,312.694885 
	C380.271454,314.725739 370.891388,315.687714 361.600494,316.983032 
	C351.442078,318.399292 341.272614,319.755157 331.083496,320.924286 
	C325.859070,321.523773 320.584320,321.888336 315.327087,321.956848 
	C303.663696,322.108765 291.968567,322.521088 280.338989,321.876923 
	C266.144501,321.090668 251.976624,319.565063 237.848969,317.916046 
	C226.774796,316.623413 215.633514,315.292755 204.790527,312.807587 
	C194.255600,310.393066 184.017441,306.621918 173.736328,303.185150 
	C167.701111,301.167725 161.761230,298.808685 155.951248,296.216125 
	C154.612228,295.618622 153.232056,293.472839 153.155441,291.973846 
	C152.841522,285.832642 153.024368,279.666046 153.024368,273.074005 
	C158.988144,275.033875 164.590866,277.147339 170.344101,278.704742 
	C180.029312,281.326569 189.855896,283.431305 199.518021,286.129547 
	C201.891678,286.792419 204.233093,288.573151 205.912109,290.446838 
	C207.688171,292.428802 208.349396,295.380554 210.031418,297.481262 
	C216.529572,305.596924 227.258850,305.793213 232.973450,294.968903 
	C234.115982,292.804749 235.170654,291.567261 238.085800,292.014771 
z"/>
<path fill="none" opacity="1.000000" stroke="none" 
	d="
M385.178619,280.433594 
	C385.014496,276.845306 384.919617,273.678772 385.013947,270.517914 
	C385.241974,262.875183 389.596008,256.132874 398.108978,252.883118 
	C402.080170,251.367142 404.579437,253.379745 407.323547,255.007721 
	C412.147400,257.869507 416.629974,261.319916 421.512817,264.066254 
	C430.798981,269.289215 431.891998,268.070251 440.893097,265.513092 
	C440.893097,268.830597 440.893097,272.138519 440.893097,276.034180 
	C422.855499,279.424744 404.826202,282.813751 386.626953,286.234711 
	C386.109528,284.083130 385.721710,282.470520 385.178619,280.433594 
z"/>
<path fill="none" opacity="1.000000" stroke="none" 
	d="
M271.266327,275.762878 
	C272.201355,280.192841 272.871735,284.294342 273.710358,289.425140 
	C260.928711,288.179901 249.242462,287.041382 236.104156,285.761414 
	C240.272217,278.136261 243.402954,271.440094 247.416763,265.323334 
	C251.924973,258.453247 261.808014,258.623779 266.262695,266.781616 
	C267.838776,269.667847 269.421844,272.550293 271.266327,275.762878 
z"/>
<path fill="none" opacity="1.000000" stroke="none" 
	d="
M153.043182,262.967773 
	C153.200226,262.142365 153.376434,261.706848 153.552643,261.271332 
	C163.133057,265.705048 171.342911,261.757904 179.492279,257.121948 
	C181.666031,255.885315 183.966522,254.676285 186.364426,254.067139 
	C192.439911,252.523819 195.112106,256.938507 196.884079,261.336914 
	C199.233994,267.169952 200.742050,273.342133 202.997147,280.610413 
	C190.863007,277.462555 180.207550,274.860291 169.658096,271.882538 
	C165.381180,270.675354 161.262985,268.804932 157.220108,266.919891 
	C155.626923,266.177002 154.436295,264.570770 153.043182,262.967773 
z"/>
<path fill="none" opacity="1.000000" stroke="none" 
	d="
M345.246460,274.814270 
	C348.128296,279.410950 350.738953,283.755188 354.016083,289.208435 
	C341.262878,289.208435 329.701782,289.208435 318.048615,289.208435 
	C318.910522,285.249542 318.986389,280.624603 320.895050,276.952240 
	C326.200928,266.743317 336.443817,265.953369 345.246460,274.814270 
z"/>
<path fill="none" opacity="1.000000" stroke="none" 
	d="
M240.006454,140.055191 
	C240.673203,131.103455 241.161850,122.602005 242.183411,114.165077 
	C242.389999,112.458885 242.457809,108.575706 247.597107,110.652771 
	C246.836609,117.992012 245.983521,125.741608 245.242981,133.501938 
	C244.436584,141.952377 243.726654,150.412079 242.990677,158.869156 
	C242.636490,162.939240 242.483459,167.037827 241.863907,171.065765 
	C241.717621,172.016785 240.057648,172.734985 239.093994,173.560287 
	C238.540482,173.281143 237.986969,173.001999 237.433456,172.722855 
	C238.294388,161.991318 239.155319,151.259766 240.006454,140.055191 
z"/>
<path fill="none" opacity="1.000000" stroke="none" 
	d="
M321.958374,174.827667 
	C321.484100,177.305801 321.024780,179.337814 320.487671,181.713745 
	C319.261353,181.713745 317.721039,181.713745 316.127563,181.713745 
	C319.844330,159.115524 322.157776,136.449860 327.893250,114.426239 
	C328.490295,114.511368 329.087341,114.596497 329.684387,114.681625 
	C328.484436,125.645439 327.432922,136.628174 326.038239,147.567169 
	C324.895233,156.532318 323.343750,165.445404 321.958374,174.827667 
z"/>
<path fill="none" opacity="1.000000" stroke="none" 
	d="
M290.011841,122.915138 
	C288.102325,141.090057 286.291473,158.797867 281.692505,177.324417 
	C280.173950,175.419525 279.026550,174.626343 279.106720,173.987091 
	C281.713043,153.204163 284.421051,132.433838 287.218933,111.675797 
	C287.309021,111.007126 288.499054,110.486717 290.012177,109.169632 
	C290.012177,114.264168 290.012177,118.347687 290.011841,122.915138 
z"/>
<path fill="none" opacity="1.000000" stroke="none" 
	d="
M362.987457,133.786438 
	C364.020233,127.196556 365.051086,121.050797 366.081940,114.905037 
	C366.714691,114.982040 367.347412,115.059052 367.980164,115.136055 
	C367.980164,118.338043 368.449402,121.622849 367.901367,124.728119 
	C365.083252,140.696274 361.973206,156.612717 359.058899,172.564362 
	C358.735779,174.333023 359.334076,176.292999 358.898804,178.010605 
	C358.573822,179.292862 357.271088,180.327347 356.403778,181.472168 
	C355.872223,181.195724 355.340698,180.919281 354.809143,180.642838 
	C357.534607,165.172073 360.260071,149.701309 362.987457,133.786438 
z"/>
<path fill="none" opacity="1.000000" stroke="none" 
	d="
M341.968842,83.719765 
	C338.344299,91.169876 334.714447,98.183548 330.577423,106.177155 
	C326.001709,96.493980 328.184082,92.524536 332.173676,86.429184 
	C334.655060,82.638092 337.569763,79.130661 341.316772,74.123955 
	C341.587494,77.957748 341.775543,80.620529 341.968842,83.719765 
z"/>
<path fill="none" opacity="1.000000" stroke="none" 
	d="
M369.226807,93.468643 
	C371.272675,90.168114 373.144104,87.216812 375.248413,83.898293 
	C377.320618,94.132126 375.862122,99.079544 369.412567,104.694336 
	C365.309235,101.200775 368.157166,97.476997 369.226807,93.468643 
z"/>
<path fill="none" opacity="1.000000" stroke="none" 
	d="
M246.219849,91.496338 
	C247.850739,88.054375 249.315033,84.988884 251.011505,81.437347 
	C255.532959,89.995705 250.946075,95.723854 246.580200,101.504669 
	C244.569946,98.843925 244.501404,97.603897 246.219849,91.496338 
z"/>
<path fill="none" opacity="1.000000" stroke="none" 
	d="
M290.728912,89.806557 
	C291.642517,88.108894 292.288757,86.696053 293.432556,84.195541 
	C296.981628,92.012871 293.833252,96.902496 289.383698,101.348541 
	C286.879181,97.447823 288.586700,93.762421 290.728912,89.806557 
z"/>
<path fill="#F2EFF5" opacity="1.000000" stroke="none" 
	d="
M292.658661,327.596008 
	C289.743805,327.834198 286.512329,327.822357 283.083893,327.423737 
	C286.038635,327.139954 289.190338,327.242950 292.658661,327.596008 
z"/>
<path fill="#F2EFF5" opacity="1.000000" stroke="none" 
	d="
M318.712585,327.022614 
	C317.358551,327.351562 315.600494,327.665283 313.433655,327.912415 
	C314.786072,327.566315 316.547333,327.286865 318.712585,327.022614 
z"/>
<path fill="#F2EFF5" opacity="1.000000" stroke="none" 
	d="
M308.749695,327.623413 
	C307.920380,327.891235 306.864197,327.936310 305.416412,327.912964 
	C306.190826,327.696594 307.356842,327.548615 308.749695,327.623413 
z"/>
<path fill="#F2EFF5" opacity="1.000000" stroke="none" 
	d="
M298.885315,327.708130 
	C298.978821,327.845154 298.500153,327.969666 298.260559,327.908386 
	C298.204681,327.473328 298.461639,327.381317 298.885315,327.708130 
z"/>
</svg>