<svg version="1.1" id="Layer_1" xmlns="http://www.w3.org/2000/svg" xmlns:xlink="http://www.w3.org/1999/xlink" x="0px" y="0px"
	 width="100%" viewBox="0 0 593 421" enable-background="new 0 0 593 421" xml:space="preserve">
<path fill="#000000" opacity="1.000000" stroke="none" 
	d="
M331.000000,422.000000 
	C220.666687,422.000000 110.833389,422.000000 1.000059,422.000000 
	C1.000039,281.666718 1.000039,141.333450 1.000020,1.000134 
	C198.666565,1.000090 396.333130,1.000090 593.999756,1.000045 
	C593.999878,141.333191 593.999878,281.666382 593.999939,421.999786 
	C506.500000,422.000000 419.000000,422.000000 331.000000,422.000000 
M357.359680,269.893158 
	C353.400757,267.127228 351.340332,260.458557 344.591522,263.868225 
	C344.740997,262.086517 345.438904,260.288696 344.893677,259.028900 
	C343.332092,255.420868 345.286224,253.096802 347.045624,250.403748 
	C351.072754,244.239655 355.415375,238.192368 358.626038,231.608139 
	C362.164764,224.351059 364.580780,216.546494 367.476318,209.005402 
	C368.797546,209.393021 369.925507,210.113251 370.901581,209.946198 
	C376.608124,208.969559 379.756195,211.443649 383.038147,216.197784 
	C389.031036,224.878906 402.200897,228.294846 412.267395,224.563614 
	C420.268402,221.597977 426.159912,216.361694 431.145660,210.117020 
	C434.877777,205.442520 437.322021,199.720474 440.147186,194.363342 
	C440.542908,193.612976 439.838562,192.282486 439.643433,191.220535 
	C438.680908,191.684692 437.536102,191.958542 436.802246,192.661469 
	C435.895844,193.529633 435.249817,194.709702 434.631683,195.832306 
	C430.451111,203.424835 425.526184,210.200500 417.392548,214.189377 
	C410.858948,217.393570 404.989868,216.643539 399.092407,212.826111 
	C402.073853,211.428253 404.894287,210.396271 407.406128,208.859772 
	C411.121796,206.586853 413.397675,199.318893 411.844879,194.666687 
	C410.494507,190.620850 407.329285,188.504608 403.141357,188.007156 
	C399.746429,187.603912 396.303894,187.520935 392.940094,186.954086 
	C387.388031,186.018524 383.225800,187.635757 380.685364,192.818420 
	C379.912537,194.395126 379.147644,195.975723 377.690186,198.969879 
	C378.649414,191.722351 377.571259,186.847183 371.963104,183.812073 
	C371.183319,183.390045 371.106415,181.279602 371.096283,179.947784 
	C371.088074,178.872238 372.042358,177.753220 371.933929,176.720200 
	C370.895538,166.824951 370.131866,156.787155 364.948792,147.959641 
	C360.212036,139.892395 354.768341,132.376694 344.106964,131.996658 
	C332.365448,131.578094 320.618042,131.325546 308.873077,131.004608 
	C308.040527,130.981857 307.202515,131.046631 306.374786,130.977768 
	C290.546967,129.661072 274.719971,128.334076 258.893463,127.001541 
	C246.991989,125.999474 235.092285,124.976494 223.190033,123.983833 
	C218.780853,123.616096 214.348221,123.464066 209.958206,122.944168 
	C196.554169,121.356750 183.174667,119.561043 169.767517,118.001801 
	C162.559433,117.163506 155.533524,116.772514 149.214798,111.986855 
	C142.396896,106.823135 137.969040,107.461006 133.075958,114.684715 
	C128.820404,120.967247 125.894585,128.254593 123.067604,135.370621 
	C120.389343,142.112274 125.555534,148.860886 132.739594,149.045547 
	C135.973602,149.128708 139.278946,149.259720 142.409897,149.983444 
	C150.776398,151.917343 156.812576,157.804031 163.345749,162.846451 
	C174.561005,171.502625 185.824432,180.097290 197.126984,188.639252 
	C210.448593,198.707108 223.807297,208.726334 237.199921,218.699524 
	C245.878265,225.162094 254.657501,231.489029 263.371368,237.904129 
	C278.590302,249.108276 293.788055,260.341187 309.018280,271.530029 
	C309.887360,272.168488 311.104370,273.100677 311.928589,272.908142 
	C317.212708,271.673523 322.857178,270.960388 327.528900,268.471985 
	C330.835571,266.710663 332.078644,267.381042 334.036987,269.549011 
	C335.655853,271.341217 338.767426,271.811615 338.078033,275.464355 
	C337.051910,280.901520 339.381348,284.869080 343.700134,288.402588 
	C350.479950,293.949646 365.792969,293.107208 371.664856,285.627838 
	C369.575470,285.424194 367.437927,285.408234 365.591217,286.133179 
	C359.106995,288.678497 352.193176,287.174591 348.970001,282.015808 
	C350.299500,282.007874 351.672424,282.214508 352.951050,281.955475 
	C358.993073,280.731354 362.771912,274.256805 357.359680,269.893158 
M453.060394,160.509583 
	C456.337585,154.691147 456.337585,154.691147 454.837830,150.448547 
	C449.046722,157.418716 446.880737,169.174484 434.198822,166.075821 
	C434.584351,165.321930 435.336731,165.102417 435.880951,164.638641 
	C439.078094,161.913895 441.139435,158.616074 439.679901,154.294937 
	C438.297638,150.202682 434.624329,151.042709 431.451721,151.010483 
	C429.786896,150.993576 428.059265,150.725876 426.471069,151.075714 
	C423.954956,151.629929 421.532043,152.607346 418.898376,153.461243 
	C416.737457,148.351593 411.091522,148.500290 405.973175,149.282532 
	C404.002899,149.583649 402.517151,153.055054 400.411255,155.556335 
	C399.324341,154.523666 397.101746,153.324722 396.437805,151.544479 
	C395.651154,149.435333 394.634674,148.125320 392.876892,149.212036 
	C391.501953,150.062103 390.025940,152.384918 390.257233,153.777176 
	C390.537994,155.467270 392.267059,157.487152 393.895721,158.270966 
	C398.012360,160.252151 402.391449,161.714798 406.727631,163.204041 
	C409.870697,164.283539 413.142975,164.983475 416.300415,166.025894 
	C418.197113,166.652069 420.509247,167.141541 421.726837,168.503815 
	C426.317810,173.640320 433.779572,175.317123 440.077759,173.124847 
	C446.271820,170.968781 449.600800,166.215012 453.060394,160.509583 
M489.968445,203.477448 
	C488.911194,203.214050 487.693634,202.471268 486.821899,202.762726 
	C479.538269,205.197998 472.821991,204.265274 466.423187,200.043579 
	C465.279449,199.288940 463.657715,199.258804 461.701202,198.749573 
	C462.083649,202.998672 462.385498,206.351868 462.690826,209.743988 
	C460.209869,210.815521 457.649780,211.761414 455.255157,213.021622 
	C454.022430,213.670349 453.084290,214.878876 452.013000,215.834427 
	C453.121490,216.576050 454.141846,217.698898 455.356842,217.979675 
	C457.863373,218.558929 460.466156,218.792984 463.043060,218.979370 
	C466.869537,219.256119 468.188416,221.189056 467.469574,225.039307 
	C467.020142,227.446442 466.968414,229.970093 467.102814,232.421478 
	C467.151123,233.302841 468.115112,234.463333 468.955109,234.838745 
	C469.402893,235.038849 470.630280,233.965073 471.242920,233.243179 
	C473.755341,230.282486 476.166748,227.236053 478.416260,224.466278 
	C480.790222,225.637344 483.130249,226.974503 485.615723,227.935333 
	C486.742950,228.371124 488.158691,228.060547 489.443573,228.088562 
	C489.209900,226.803680 489.288910,225.347488 488.693512,224.260788 
	C483.537903,214.850769 483.727356,211.272903 489.968445,203.477448 
M397.239746,291.029907 
	C393.502472,290.764923 394.069519,293.418915 393.992706,295.726776 
	C393.803223,301.421326 391.613770,303.006439 386.183838,301.627960 
	C384.560455,301.215851 382.848999,301.150513 381.177917,300.926270 
	C380.872650,301.374268 380.567352,301.822266 380.262085,302.270233 
	C382.788300,305.056458 385.314514,307.842712 387.804504,310.588989 
	C386.802399,312.254730 385.819458,313.728271 385.015656,315.293762 
	C384.625580,316.053528 384.570831,316.985474 384.364258,317.839417 
	C385.319031,317.897583 386.364685,318.239777 387.213806,317.967926 
	C392.790131,316.182709 398.314606,314.466766 403.853058,319.357574 
	C402.787994,311.696167 404.810822,305.409729 410.213623,299.855164 
	C407.759583,299.116638 406.192810,298.057831 405.243713,298.459259 
	C400.665558,300.395752 399.909485,297.299561 398.975861,294.182678 
	C398.699829,293.261169 398.286469,292.380829 397.239746,291.029907 
M385.036194,242.851044 
	C387.149414,240.968216 389.262634,239.085403 390.715027,237.791367 
	C388.165527,234.444641 385.398560,230.569977 382.303040,226.978546 
	C381.763275,226.352280 379.624725,226.511536 378.611694,227.044159 
	C377.488373,227.634796 376.809052,229.069839 376.062714,229.982681 
	C373.956482,229.576859 372.145813,229.227997 370.335144,228.879120 
	C369.861084,229.059387 369.386993,229.239639 368.912933,229.419891 
	C373.301605,234.509781 375.548187,239.597366 368.608643,244.773376 
	C371.012573,244.914536 371.903076,245.205963 372.617126,244.967957 
	C375.958923,243.854034 378.883759,243.327530 380.378357,247.722168 
	C380.642059,248.497543 382.363586,248.777145 383.470459,249.314117 
	C384.094360,247.029068 384.553894,245.345917 385.036194,242.851044 
M485.957397,179.594177 
	C486.114136,180.049728 486.139709,180.639587 486.447662,180.940247 
	C489.877014,184.288101 493.008789,185.594284 498.447662,183.700485 
	C503.044037,182.100037 507.337250,182.306503 509.074402,176.438065 
	C510.472443,171.715073 509.599701,169.357224 504.586426,169.010681 
	C499.494263,168.658691 494.401764,168.254944 489.302887,168.119278 
	C488.560303,168.099503 487.319641,169.327148 487.103302,170.179138 
	C486.369507,173.069229 485.991943,176.049774 485.957397,179.594177 
M454.285828,269.952606 
	C450.746307,271.025940 449.996582,274.294983 451.215332,276.615814 
	C452.731903,279.503754 455.673645,281.729309 458.270538,283.920105 
	C459.262421,284.756866 461.205109,284.387177 462.363434,285.121216 
	C465.543793,287.136658 472.017700,286.190430 474.413849,283.110962 
	C476.092346,280.953888 474.261444,276.707001 470.458618,274.122498 
	C467.809601,272.322113 464.562469,271.082520 462.533630,268.761169 
	C459.198730,264.945465 457.096985,265.617676 454.285828,269.952606 
M421.294678,292.175171 
	C420.738068,298.783173 425.934052,307.046417 432.638672,308.625549 
	C434.909668,309.160431 437.835876,306.913513 441.775635,305.450134 
	C435.690277,298.709137 430.753265,293.240204 425.818878,287.774200 
	C424.166016,289.631439 423.120758,290.805969 421.294678,292.175171 
M409.998566,262.332916 
	C409.998566,260.569061 409.998566,258.805206 409.998566,255.271500 
	C405.319763,257.523102 401.813995,259.149323 398.369202,260.895905 
	C396.850067,261.666168 394.104797,263.015228 394.231781,263.527924 
	C394.857361,266.053528 395.640472,269.220276 397.516846,270.613739 
	C401.382660,273.484589 409.704895,268.269989 409.998566,262.332916 
M430.997681,190.423355 
	C430.861969,185.907135 428.056000,184.522476 424.162262,185.065674 
	C420.581665,185.565170 418.961243,188.185226 420.158783,191.436966 
	C420.830688,193.261322 422.861938,195.313797 424.685425,195.827805 
	C428.081726,196.785110 430.045380,194.386215 430.997681,190.423355 
M423.396149,341.949890 
	C425.904572,343.943878 428.856567,344.223846 431.064789,342.189148 
	C432.372559,340.984100 433.191956,338.182495 432.757385,336.473450 
	C432.374695,334.968353 430.083405,333.317352 428.378632,332.962585 
	C426.772369,332.628357 423.818085,333.421509 423.269562,334.578308 
	C422.392700,336.427490 423.015411,338.987823 423.396149,341.949890 
M433.147552,240.976089 
	C434.866730,239.280029 436.585907,237.583969 438.027100,236.162170 
	C436.440460,232.366287 434.839752,228.776703 430.676117,230.300766 
	C428.716919,231.017899 426.250122,233.841156 426.271606,235.683685 
	C426.306580,238.680756 428.241882,241.601089 433.147552,240.976089 
M373.096222,264.973328 
	C376.301941,263.598480 378.382233,261.280701 376.282745,257.985535 
	C375.144135,256.198425 372.376373,254.237885 370.533142,254.408203 
	C368.054260,254.637222 365.190704,256.552124 366.030334,260.150848 
	C366.767853,263.311890 368.352570,265.734650 373.096222,264.973328 
M441.304352,260.167755 
	C443.243866,257.897766 442.777069,255.751678 440.544617,254.196747 
	C439.621735,253.553909 437.284302,253.275116 436.953918,253.759995 
	C435.949890,255.233414 435.611206,257.160187 435.013397,258.910400 
	C436.938385,259.532257 438.863373,260.154144 441.304352,260.167755 
M481.000183,189.599091 
	C479.807892,188.102646 478.862396,185.922241 477.329712,185.369202 
	C476.426697,185.043350 473.876678,187.059906 473.406158,188.469772 
	C473.038330,189.571960 474.777618,192.626053 475.498383,192.599258 
	C477.360626,192.530075 479.177338,191.235535 481.000183,189.599091 
z"/>
<path fill="#FBF1E1" opacity="1.000000" stroke="none" 
	d="
M348.126404,282.056091 
	C352.193176,287.174591 359.106995,288.678497 365.591217,286.133179 
	C367.437927,285.408234 369.575470,285.424194 371.664856,285.627838 
	C365.792969,293.107208 350.479950,293.949646 343.700134,288.402588 
	C339.381348,284.869080 337.051910,280.901520 338.078033,275.464355 
	C338.767426,271.811615 335.655853,271.341217 334.036987,269.549011 
	C332.078644,267.381042 330.835571,266.710663 327.528900,268.471985 
	C322.857178,270.960388 317.212708,271.673523 311.928589,272.908142 
	C311.104370,273.100677 309.887360,272.168488 309.018280,271.530029 
	C293.788055,260.341187 278.590302,249.108276 263.371368,237.904129 
	C254.657501,231.489029 245.878265,225.162094 237.199921,218.699524 
	C223.807297,208.726334 210.448593,198.707108 197.126984,188.639252 
	C185.824432,180.097290 174.561005,171.502625 163.345749,162.846451 
	C156.812576,157.804031 150.776398,151.917343 142.409897,149.983444 
	C139.278946,149.259720 135.973602,149.128708 132.739594,149.045547 
	C125.555534,148.860886 120.389343,142.112274 123.067604,135.370621 
	C125.894585,128.254593 128.820404,120.967247 133.075958,114.684715 
	C137.969040,107.461006 142.396896,106.823135 149.214798,111.986855 
	C155.533524,116.772514 162.559433,117.163506 169.767517,118.001801 
	C183.174667,119.561043 196.554169,121.356750 209.958206,122.944168 
	C214.348221,123.464066 218.780853,123.616096 223.190033,123.983833 
	C235.092285,124.976494 246.991989,125.999474 258.893463,127.001541 
	C274.719971,128.334076 290.546967,129.661072 306.374786,130.977768 
	C307.202515,131.046631 308.040527,130.981857 308.873077,131.004608 
	C320.618042,131.325546 332.365448,131.578094 344.106964,131.996658 
	C354.768341,132.376694 360.212036,139.892395 364.948792,147.959641 
	C370.131866,156.787155 370.895538,166.824951 371.933929,176.720200 
	C372.042358,177.753220 371.088074,178.872238 371.096283,179.947784 
	C371.106415,181.279602 371.183319,183.390045 371.963104,183.812073 
	C377.571259,186.847183 378.649414,191.722351 377.690186,198.969879 
	C379.147644,195.975723 379.912537,194.395126 380.685364,192.818420 
	C383.225800,187.635757 387.388031,186.018524 392.940094,186.954086 
	C396.303894,187.520935 399.746429,187.603912 403.141357,188.007156 
	C407.329285,188.504608 410.494507,190.620850 411.844879,194.666687 
	C413.397675,199.318893 411.121796,206.586853 407.406128,208.859772 
	C404.894287,210.396271 402.073853,211.428253 399.092407,212.826111 
	C404.989868,216.643539 410.858948,217.393570 417.392548,214.189377 
	C425.526184,210.200500 430.451111,203.424835 434.631683,195.832306 
	C435.249817,194.709702 435.895844,193.529633 436.802246,192.661469 
	C437.536102,191.958542 438.680908,191.684692 439.643433,191.220535 
	C439.838562,192.282486 440.542908,193.612976 440.147186,194.363342 
	C437.322021,199.720474 434.877777,205.442520 431.145660,210.117020 
	C426.159912,216.361694 420.268402,221.597977 412.267395,224.563614 
	C402.200897,228.294846 389.031036,224.878906 383.038147,216.197784 
	C379.756195,211.443649 376.608124,208.969559 370.901581,209.946198 
	C369.925507,210.113251 368.797546,209.393021 367.476318,209.005402 
	C364.580780,216.546494 362.164764,224.351059 358.626038,231.608139 
	C355.415375,238.192368 351.072754,244.239655 347.045624,250.403748 
	C345.286224,253.096802 343.332092,255.420868 344.893677,259.028900 
	C345.438904,260.288696 344.740997,262.086517 344.591522,263.868225 
	C351.340332,260.458557 353.400757,267.127228 357.613068,270.356049 
	C354.953217,273.077881 353.912292,277.885559 350.430969,277.446259 
	C349.662231,278.907837 349.177887,279.804871 348.717590,280.714111 
	C348.497101,281.149597 348.322052,281.608032 348.126404,282.056091 
M212.024933,138.030792 
	C212.024933,138.030792 212.104141,138.063492 211.488861,137.988724 
	C210.998474,136.996719 210.508102,136.004730 210.566177,134.724365 
	C210.919022,134.062332 211.271881,133.400314 211.624725,132.738297 
	C211.319199,132.618896 211.013672,132.499512 210.708145,132.380112 
	C210.465683,133.247040 210.223221,134.113953 209.317154,135.097153 
	C205.451187,137.647629 209.600494,140.468506 208.749359,143.802536 
	C206.266678,150.980972 203.329559,158.041809 201.432755,165.371841 
	C199.637894,172.307907 200.090302,180.249054 203.941895,185.709396 
	C207.701660,191.039612 214.773926,194.033295 220.964981,198.462646 
	C220.883926,184.962769 222.126221,172.926025 226.937180,161.499588 
	C231.672119,150.253677 238.071808,140.165222 248.455765,132.242035 
	C239.381073,131.085342 231.224411,129.893143 223.029556,129.090683 
	C220.447754,128.837875 217.763626,129.629944 214.393280,130.096024 
	C214.279297,132.106461 214.165298,134.116898 213.940155,136.594910 
	C213.757217,136.898392 213.488571,137.049561 212.652130,137.262863 
	C212.452972,137.545624 212.253815,137.828400 212.024933,138.030792 
M149.193359,124.222107 
	C150.974762,122.571823 152.756149,120.921539 154.813675,119.015450 
	C151.701172,117.648033 148.467667,116.376350 145.371292,114.830032 
	C141.357452,112.825531 138.188004,114.050293 136.192154,117.571625 
	C133.368881,122.552750 130.405411,127.619911 128.703934,133.028458 
	C126.687233,139.439041 126.998436,145.301407 136.569992,145.016083 
	C138.944061,144.945312 141.322037,145.005508 142.612564,145.005508 
	C143.436539,140.455734 144.293625,135.723053 145.633118,130.559402 
	C146.738632,128.654831 147.844162,126.750252 149.193359,124.222107 
M267.000092,204.036575 
	C267.340363,209.110214 268.171265,214.208939 267.913208,219.251968 
	C267.453674,228.233719 270.188568,235.002762 278.211517,239.852097 
	C285.227539,244.092850 291.682526,249.261871 299.419373,254.754944 
	C282.158234,214.878250 304.089935,156.026688 333.123657,138.432587 
	C327.753845,137.971100 322.090057,137.297348 316.407990,137.058090 
	C312.231018,136.882233 308.066315,136.408035 304.392853,139.883682 
	C299.672119,144.350174 294.361755,148.200256 289.224030,152.211746 
	C288.476135,152.795700 287.277130,152.801895 285.944427,153.170013 
	C286.091827,151.400513 286.190338,150.218124 286.288818,149.035736 
	C280.567810,155.870667 275.237366,162.696182 271.555145,170.317978 
	C267.853210,177.980560 265.051697,186.272644 263.219666,194.589340 
	C261.387665,202.905655 261.244110,211.593918 260.360443,220.119125 
	C260.758423,220.159027 261.156433,220.198944 261.554413,220.238846 
	C262.422974,214.487411 263.291565,208.735977 264.635925,202.447174 
	C264.742767,201.255859 264.849579,200.064545 264.993286,198.150833 
	C265.044464,197.432236 265.095673,196.713654 265.534851,195.717377 
	C265.756714,195.476501 265.897736,195.195114 265.997650,194.245850 
	C266.049164,193.832123 266.100677,193.418381 266.896606,193.006546 
	C267.640289,193.024078 268.383972,193.041611 269.008881,193.852570 
	C268.620178,195.906265 268.231445,197.959976 267.382324,200.497345 
	C267.269012,201.371872 267.155701,202.246414 267.000092,204.036575 
M303.991913,195.271576 
	C298.100250,214.505142 297.206268,233.789185 305.342682,252.513367 
	C311.192047,265.974365 317.099731,267.639282 328.554779,260.768219 
	C328.771362,260.638306 328.823761,260.234680 329.061493,259.726166 
	C328.466217,259.085083 327.591187,258.479309 327.182861,257.645081 
	C325.378784,253.958893 323.314056,250.313278 322.262238,246.405731 
	C321.991882,245.401337 324.933136,243.279266 326.715454,242.187286 
	C327.075806,241.966492 329.679077,243.970963 329.831726,245.135208 
	C330.187317,247.848160 329.680542,250.674164 329.548615,253.004745 
	C332.284027,251.808167 334.335144,250.886398 336.406464,250.012482 
	C338.118683,249.290054 340.611877,249.129593 341.462799,247.854874 
	C349.548096,235.742432 356.849762,223.194824 360.482605,208.898987 
	C360.724304,207.947861 360.750702,206.256424 360.221680,205.909790 
	C357.448853,204.092896 354.626770,202.097763 351.521423,201.092194 
	C344.088379,198.685226 336.643219,196.520416 332.517700,189.032791 
	C330.684113,185.704865 331.867798,181.487854 335.330841,180.308777 
	C337.264587,179.650391 340.877960,178.857864 340.836395,182.247467 
	C340.742615,189.900955 346.994415,190.921661 351.125153,194.212738 
	C352.139709,190.311829 352.004303,185.798508 354.172668,183.853256 
	C356.534058,181.734863 361.033356,181.999588 365.311066,181.071167 
	C364.894989,176.769226 364.441223,172.079285 363.987762,167.389313 
	C363.060181,157.795639 359.365814,149.460922 352.872253,142.300323 
	C350.516693,139.702759 348.012024,139.503067 344.906616,140.546280 
	C337.580200,143.007492 331.771210,147.367615 326.390381,152.961823 
	C315.019440,164.783676 307.900635,178.673203 303.991913,195.271576 
M264.464172,170.011642 
	C271.185883,156.295044 280.999207,145.260498 294.287201,135.743484 
	C283.516754,134.788345 273.468414,133.841858 263.406525,133.072281 
	C262.089691,132.971558 260.390717,133.405212 259.404419,134.231140 
	C255.517410,137.486145 251.959122,141.138611 248.020508,144.324173 
	C246.861908,145.261276 244.850754,145.144302 242.251862,145.731461 
	C241.611481,146.800339 240.306229,148.978943 238.856323,151.398987 
	C240.006821,151.308243 240.913544,151.236740 242.356857,151.122894 
	C241.921494,152.845169 241.789001,154.145370 241.277832,155.274063 
	C234.380295,170.504425 231.442032,186.335526 234.041367,202.985046 
	C234.379532,205.151154 234.602707,208.076050 236.025085,209.202637 
	C241.894974,213.851883 248.206329,217.943756 254.781265,222.538025 
	C253.000092,203.804581 256.160095,186.800430 264.464172,170.011642 
M196.949158,143.407532 
	C200.922089,138.229660 204.895020,133.051788 208.849686,127.897705 
	C200.784897,126.700760 191.929382,125.331062 183.048508,124.152657 
	C182.143967,124.032639 180.701965,124.802010 180.163132,125.600067 
	C176.664612,130.781723 172.820831,135.827042 170.080643,141.403717 
	C164.480576,152.800659 165.762817,159.212021 174.540863,165.923782 
	C179.661514,169.839066 185.185593,173.226715 190.992905,177.167099 
	C190.992905,171.028931 190.287262,165.741165 191.179077,160.738144 
	C192.197083,155.027145 194.637589,149.569717 196.949158,143.407532 
M161.007431,150.529266 
	C161.324005,152.824234 161.640579,155.119217 161.957153,157.414185 
	C162.407928,157.424896 162.858704,157.435608 163.309479,157.446320 
	C161.104614,144.855469 166.236267,134.734543 175.142044,124.751534 
	C172.467529,125.811569 171.337219,126.259560 169.883316,126.835815 
	C170.064728,125.166801 170.221298,123.726372 170.384750,122.222511 
	C158.815506,118.507652 155.381042,122.004158 149.710159,133.949661 
	C145.668396,142.463455 147.650085,147.415680 155.440125,151.838425 
	C157.968948,148.633224 156.833023,143.234314 160.710724,140.838669 
	C161.214325,141.068756 161.717926,141.298843 162.221527,141.528931 
	C161.816711,144.230469 161.411880,146.932022 161.007431,150.529266 
M384.953461,210.443359 
	C389.429535,218.095169 396.126099,221.728195 403.142120,220.523758 
	C397.313934,218.505142 392.785156,215.192688 390.775970,208.507965 
	C388.746246,201.754684 391.332001,196.465302 394.543732,191.091202 
	C389.071655,188.703476 387.111450,189.506027 384.496033,193.928726 
	C381.281128,199.365265 381.832214,204.550949 384.953461,210.443359 
M362.975800,192.397720 
	C365.193420,186.448212 364.219818,185.560669 356.382416,186.387146 
	C353.230713,197.828522 365.019745,207.211655 376.399841,205.529800 
	C368.657288,204.254364 365.354523,199.215134 362.975800,192.397720 
M399.967590,204.565613 
	C398.608276,205.390594 397.248993,206.215576 395.476715,207.291214 
	C402.030273,208.547791 408.135498,204.795227 408.997437,199.517715 
	C409.727234,195.049561 407.734680,192.871719 403.429840,192.388672 
	C402.430786,196.373077 401.475250,200.184128 399.967590,204.565613 
M345.339630,272.092743 
	C347.243073,270.737396 349.146484,269.382050 351.094452,267.994995 
	C348.105347,264.736023 345.873474,266.623962 343.769745,268.763702 
	C340.267578,272.325928 340.022247,276.284424 342.514893,280.844574 
	C343.410065,277.948303 344.205048,275.376190 345.339630,272.092743 
M371.390991,197.891754 
	C371.650635,198.088547 371.910309,198.285324 372.169952,198.482101 
	C372.777161,196.757980 374.133209,194.867737 373.797119,193.352875 
	C373.400024,191.562912 371.541016,190.097290 370.315735,188.491058 
	C369.657562,188.859207 368.999420,189.227371 368.341278,189.595520 
	C369.189606,192.160797 370.037964,194.726059 371.390991,197.891754 
M333.013428,261.104828 
	C333.707092,262.687958 334.400787,264.271088 334.697144,264.947449 
	C335.596405,261.775665 336.581604,258.300964 337.635010,254.585617 
	C334.564056,252.787079 333.255188,253.431244 333.018951,257.805084 
	C332.974609,258.625916 333.015625,259.451385 333.013428,261.104828 
M204.772781,143.134247 
	C204.896057,142.206940 205.019333,141.279633 205.142609,140.352310 
	C204.652252,140.405014 204.161880,140.457703 203.671524,140.510406 
	C203.921753,141.532974 204.171997,142.555542 204.772781,143.134247 
z"/>
<path fill="#FAF1E4" opacity="1.000000" stroke="none" 
	d="
M453.028137,160.897278 
	C449.600800,166.215012 446.271820,170.968781 440.077759,173.124847 
	C433.779572,175.317123 426.317810,173.640320 421.726837,168.503815 
	C420.509247,167.141541 418.197113,166.652069 416.300415,166.025894 
	C413.142975,164.983475 409.870697,164.283539 406.727631,163.204041 
	C402.391449,161.714798 398.012360,160.252151 393.895721,158.270966 
	C392.267059,157.487152 390.537994,155.467270 390.257233,153.777176 
	C390.025940,152.384918 391.501953,150.062103 392.876892,149.212036 
	C394.634674,148.125320 395.651154,149.435333 396.437805,151.544479 
	C397.101746,153.324722 399.324341,154.523666 400.411255,155.556335 
	C402.517151,153.055054 404.002899,149.583649 405.973175,149.282532 
	C411.091522,148.500290 416.737457,148.351593 418.898376,153.461243 
	C421.532043,152.607346 423.954956,151.629929 426.471069,151.075714 
	C428.059265,150.725876 429.786896,150.993576 431.451721,151.010483 
	C434.624329,151.042709 438.297638,150.202682 439.679901,154.294937 
	C441.139435,158.616074 439.078094,161.913895 435.880951,164.638641 
	C435.336731,165.102417 434.584351,165.321930 434.198822,166.075821 
	C446.880737,169.174484 449.046722,157.418716 454.837830,150.448547 
	C456.337585,154.691147 456.337585,154.691147 453.028137,160.897278 
M411.131927,161.624146 
	C411.662750,161.665970 412.193604,161.707809 412.724426,161.749634 
	C412.403687,161.308578 412.082916,160.867523 411.279816,159.849701 
	C410.507843,157.965744 409.813660,156.043442 408.915710,154.221588 
	C408.651215,153.684998 407.736267,153.058884 407.253601,153.154114 
	C406.760895,153.251282 405.969086,154.509048 406.104248,154.702515 
	C407.629120,156.884979 409.307312,158.960327 411.131927,161.624146 
M427.892426,166.411652 
	C427.127380,162.370834 426.362335,158.330032 425.539368,153.983276 
	C421.943451,153.954178 422.386414,157.841736 422.167999,160.244690 
	C421.801422,164.277557 425.749939,168.230942 429.577698,168.585312 
	C429.028076,168.097763 428.510986,167.639084 427.892426,166.411652 
z"/>
<path fill="#FAF2E4" opacity="1.000000" stroke="none" 
	d="
M489.981964,203.864349 
	C483.727356,211.272903 483.537903,214.850769 488.693512,224.260788 
	C489.288910,225.347488 489.209900,226.803680 489.443573,228.088562 
	C488.158691,228.060547 486.742950,228.371124 485.615723,227.935333 
	C483.130249,226.974503 480.790222,225.637344 478.416260,224.466278 
	C476.166748,227.236053 473.755341,230.282486 471.242920,233.243179 
	C470.630280,233.965073 469.402893,235.038849 468.955109,234.838745 
	C468.115112,234.463333 467.151123,233.302841 467.102814,232.421478 
	C466.968414,229.970093 467.020142,227.446442 467.469574,225.039307 
	C468.188416,221.189056 466.869537,219.256119 463.043060,218.979370 
	C460.466156,218.792984 457.863373,218.558929 455.356842,217.979675 
	C454.141846,217.698898 453.121490,216.576050 452.013000,215.834442 
	C453.084290,214.878876 454.022430,213.670349 455.255157,213.021622 
	C457.649780,211.761414 460.209869,210.815521 462.690826,209.743988 
	C462.385498,206.351868 462.083649,202.998672 461.701202,198.749573 
	C463.657715,199.258804 465.279449,199.288940 466.423187,200.043579 
	C472.821991,204.265274 479.538269,205.197998 486.821899,202.762726 
	C487.693634,202.471268 488.911194,203.214050 489.981964,203.864349 
M467.023193,207.690903 
	C468.859589,211.634628 466.638092,213.421677 462.844299,214.521210 
	C468.636139,215.859802 472.690277,218.215637 472.363525,225.082794 
	C474.121704,219.178864 477.311249,217.468979 482.501801,221.462173 
	C481.785553,216.558365 481.170685,212.348709 480.667236,208.902008 
	C476.090210,207.636337 471.947540,206.475616 467.779816,205.413315 
	C467.657684,205.382187 467.271027,206.389130 467.023193,207.690903 
z"/>
<path fill="#F9F1E4" opacity="1.000000" stroke="none" 
	d="
M397.587891,291.255768 
	C398.286469,292.380829 398.699829,293.261169 398.975861,294.182678 
	C399.909485,297.299561 400.665558,300.395752 405.243713,298.459259 
	C406.192810,298.057831 407.759583,299.116638 410.213623,299.855164 
	C404.810822,305.409729 402.787994,311.696167 403.853058,319.357574 
	C398.314606,314.466766 392.790131,316.182709 387.213806,317.967926 
	C386.364685,318.239777 385.319031,317.897583 384.364258,317.839417 
	C384.570831,316.985474 384.625580,316.053528 385.015656,315.293762 
	C385.819458,313.728271 386.802399,312.254730 387.804504,310.588989 
	C385.314514,307.842712 382.788300,305.056458 380.262085,302.270233 
	C380.567352,301.822266 380.872650,301.374268 381.177917,300.926270 
	C382.848999,301.150513 384.560455,301.215851 386.183838,301.627960 
	C391.613770,303.006439 393.803223,301.421326 393.992706,295.726776 
	C394.069519,293.418915 393.502472,290.764923 397.587891,291.255768 
M391.407867,305.988312 
	C390.768585,306.050476 390.129303,306.112640 390.320618,306.094055 
	C390.909393,308.220795 391.485413,310.301361 392.179474,312.808350 
	C394.005798,312.808350 396.778595,312.808350 399.451752,312.808350 
	C400.651337,309.631805 401.812042,306.558289 402.797150,303.949646 
	C400.667664,302.788208 398.791290,301.764801 397.359375,300.983826 
	C395.571686,302.506012 393.786407,304.026154 391.407867,305.988312 
z"/>
<path fill="#FAF2E4" opacity="1.000000" stroke="none" 
	d="
M385.024841,243.256912 
	C384.553894,245.345917 384.094360,247.029068 383.470459,249.314117 
	C382.363586,248.777145 380.642059,248.497543 380.378357,247.722168 
	C378.883759,243.327530 375.958923,243.854034 372.617126,244.967957 
	C371.903076,245.205963 371.012573,244.914536 368.608643,244.773376 
	C375.548187,239.597366 373.301605,234.509781 368.912933,229.419891 
	C369.386993,229.239639 369.861084,229.059387 370.335144,228.879120 
	C372.145813,229.227997 373.956482,229.576859 376.062714,229.982681 
	C376.809052,229.069839 377.488373,227.634796 378.611694,227.044159 
	C379.624725,226.511536 381.763275,226.352280 382.303040,226.978546 
	C385.398560,230.569977 388.165527,234.444641 390.715027,237.791367 
	C389.262634,239.085403 387.149414,240.968216 385.024841,243.256912 
M381.251068,241.664993 
	C382.297546,240.243240 383.344025,238.821487 384.410919,237.372009 
	C383.229950,235.618729 381.811951,233.513565 380.425446,231.455109 
	C376.850952,236.485641 376.973969,238.884155 381.251068,241.664993 
z"/>
<path fill="#F9F1E6" opacity="1.000000" stroke="none" 
	d="
M485.717834,179.294983 
	C485.991943,176.049774 486.369507,173.069229 487.103302,170.179138 
	C487.319641,169.327148 488.560303,168.099503 489.302887,168.119278 
	C494.401764,168.254944 499.494263,168.658691 504.586426,169.010681 
	C509.599701,169.357224 510.472443,171.715073 509.074402,176.438065 
	C507.337250,182.306503 503.044037,182.100037 498.447662,183.700485 
	C493.008789,185.594284 489.877014,184.288101 486.447662,180.940247 
	C486.139709,180.639587 486.114136,180.049728 485.717834,179.294983 
M493.632324,174.028397 
	C492.573578,173.875824 491.514862,173.723251 489.650208,173.454544 
	C489.863495,175.483856 490.018127,179.453125 490.321472,179.464523 
	C494.498657,179.621460 498.773834,179.611542 502.847443,178.776581 
	C504.295166,178.479874 505.265381,175.853271 506.562103,174.147491 
	C502.093079,170.248871 498.293335,173.287567 493.632324,174.028397 
z"/>
<path fill="#F9F2E7" opacity="1.000000" stroke="none" 
	d="
M454.610474,269.744324 
	C457.096985,265.617676 459.198730,264.945465 462.533630,268.761169 
	C464.562469,271.082520 467.809601,272.322113 470.458618,274.122498 
	C474.261444,276.707001 476.092346,280.953888 474.413849,283.110962 
	C472.017700,286.190430 465.543793,287.136658 462.363434,285.121216 
	C461.205109,284.387177 459.262421,284.756866 458.270538,283.920105 
	C455.673645,281.729309 452.731903,279.503754 451.215332,276.615814 
	C449.996582,274.294983 450.746307,271.025940 454.610474,269.744324 
M460.623169,273.100006 
	C456.927277,269.250000 455.825165,273.286957 453.788788,274.978699 
	C460.033569,281.904572 467.052338,283.862366 471.664795,279.258667 
	C467.976196,277.305542 464.536530,275.484253 460.623169,273.100006 
z"/>
<path fill="#F9F2E4" opacity="1.000000" stroke="none" 
	d="
M421.685059,292.077820 
	C423.120758,290.805969 424.166016,289.631439 425.818878,287.774200 
	C430.753265,293.240204 435.690277,298.709137 441.775635,305.450134 
	C437.835876,306.913513 434.909668,309.160431 432.638672,308.625549 
	C425.934052,307.046417 420.738068,298.783173 421.685059,292.077820 
M424.589996,296.072906 
	C427.731934,299.178436 430.873871,302.283966 434.015778,305.389496 
	C434.548676,304.863373 435.081604,304.337250 435.614502,303.811127 
	C432.178802,300.370575 428.743103,296.929993 425.318237,293.487091 
	C424.913757,294.171631 424.509308,294.856140 424.589996,296.072906 
z"/>
<path fill="#F9F3E6" opacity="1.000000" stroke="none" 
	d="
M409.998108,262.779785 
	C409.704895,268.269989 401.382660,273.484589 397.516846,270.613739 
	C395.640472,269.220276 394.857361,266.053528 394.231781,263.527924 
	C394.104797,263.015228 396.850067,261.666168 398.369202,260.895905 
	C401.813995,259.149323 405.319763,257.523102 409.998566,255.271500 
	C409.998566,258.805206 409.998566,260.569061 409.998108,262.779785 
M405.669495,263.997711 
	C406.237091,262.913879 406.804718,261.830078 407.372314,260.746246 
	C407.124512,260.551025 406.876709,260.355804 406.628937,260.160583 
	C403.847168,261.913757 401.065399,263.666931 398.235260,265.450623 
	C398.736786,266.340149 399.235535,267.224762 399.832214,268.283051 
	C401.702179,266.705627 403.302734,265.355469 405.669495,263.997711 
z"/>
<path fill="#FCF0E2" opacity="1.000000" stroke="none" 
	d="
M430.997620,190.830688 
	C430.045380,194.386215 428.081726,196.785110 424.685425,195.827805 
	C422.861938,195.313797 420.830688,193.261322 420.158783,191.436966 
	C418.961243,188.185226 420.581665,185.565170 424.162262,185.065674 
	C428.056000,184.522476 430.861969,185.907135 430.997620,190.830688 
z"/>
<path fill="#FBF1E2" opacity="1.000000" stroke="none" 
	d="
M423.200134,341.598694 
	C423.015411,338.987823 422.392700,336.427490 423.269562,334.578308 
	C423.818085,333.421509 426.772369,332.628357 428.378632,332.962585 
	C430.083405,333.317352 432.374695,334.968353 432.757385,336.473450 
	C433.191956,338.182495 432.372559,340.984100 431.064789,342.189148 
	C428.856567,344.223846 425.904572,343.943878 423.200134,341.598694 
z"/>
<path fill="#FBF1E2" opacity="1.000000" stroke="none" 
	d="
M432.745880,240.985992 
	C428.241882,241.601089 426.306580,238.680756 426.271606,235.683685 
	C426.250122,233.841156 428.716919,231.017899 430.676117,230.300766 
	C434.839752,228.776703 436.440460,232.366287 438.027100,236.162170 
	C436.585907,237.583969 434.866730,239.280029 432.745880,240.985992 
z"/>
<path fill="#FBF1E1" opacity="1.000000" stroke="none" 
	d="
M372.676025,264.982819 
	C368.352570,265.734650 366.767853,263.311890 366.030334,260.150848 
	C365.190704,256.552124 368.054260,254.637222 370.533142,254.408203 
	C372.376373,254.237885 375.144135,256.198425 376.282745,257.985535 
	C378.382233,261.280701 376.301941,263.598480 372.676025,264.982819 
z"/>
<path fill="#F9F4EE" opacity="1.000000" stroke="none" 
	d="
M348.548218,282.035950 
	C348.322052,281.608032 348.497101,281.149597 348.717590,280.714111 
	C349.177887,279.804871 349.662231,278.907837 350.430969,277.446259 
	C353.912292,277.885559 354.953217,273.077881 357.934082,270.495239 
	C362.771912,274.256805 358.993073,280.731354 352.951050,281.955475 
	C351.672424,282.214508 350.299500,282.007874 348.548218,282.035950 
z"/>
<path fill="#F8F3E5" opacity="1.000000" stroke="none" 
	d="
M441.046356,260.471893 
	C438.863373,260.154144 436.938385,259.532257 435.013428,258.910400 
	C435.611206,257.160187 435.949890,255.233414 436.953918,253.759995 
	C437.284302,253.275116 439.621735,253.553909 440.544617,254.196747 
	C442.777069,255.751678 443.243866,257.897766 441.046356,260.471893 
z"/>
<path fill="#FBF1E3" opacity="1.000000" stroke="none" 
	d="
M481.006226,190.014709 
	C479.177338,191.235535 477.360626,192.530075 475.498383,192.599258 
	C474.777618,192.626053 473.038330,189.571960 473.406158,188.469772 
	C473.876678,187.059906 476.426697,185.043350 477.329712,185.369202 
	C478.862396,185.922241 479.807892,188.102646 481.006226,190.014709 
z"/>
<path fill="#000000" opacity="1.000000" stroke="none" 
	d="
M304.008636,194.847809 
	C307.900635,178.673203 315.019440,164.783676 326.390381,152.961823 
	C331.771210,147.367615 337.580200,143.007492 344.906616,140.546280 
	C348.012024,139.503067 350.516693,139.702759 352.872253,142.300323 
	C359.365814,149.460922 363.060181,157.795639 363.987762,167.389313 
	C364.441223,172.079285 364.894989,176.769226 365.311066,181.071167 
	C361.033356,181.999588 356.534058,181.734863 354.172668,183.853256 
	C352.004303,185.798508 352.139709,190.311829 351.125153,194.212738 
	C346.994415,190.921661 340.742615,189.900955 340.836395,182.247467 
	C340.877960,178.857864 337.264587,179.650391 335.330841,180.308777 
	C331.867798,181.487854 330.684113,185.704865 332.517700,189.032791 
	C336.643219,196.520416 344.088379,198.685226 351.521423,201.092194 
	C354.626770,202.097763 357.448853,204.092896 360.221680,205.909790 
	C360.750702,206.256424 360.724304,207.947861 360.482605,208.898987 
	C356.849762,223.194824 349.548096,235.742432 341.462799,247.854874 
	C340.611877,249.129593 338.118683,249.290054 336.406464,250.012482 
	C334.335144,250.886398 332.284027,251.808167 329.548615,253.004745 
	C329.680542,250.674164 330.187317,247.848160 329.831726,245.135208 
	C329.679077,243.970963 327.075806,241.966492 326.715454,242.187286 
	C324.933136,243.279266 321.991882,245.401337 322.262238,246.405731 
	C323.314056,250.313278 325.378784,253.958893 327.182861,257.645081 
	C327.591187,258.479309 328.466217,259.085083 329.061493,259.726166 
	C328.823761,260.234680 328.771362,260.638306 328.554779,260.768219 
	C317.099731,267.639282 311.192047,265.974365 305.342682,252.513367 
	C297.206268,233.789185 298.100250,214.505142 304.008636,194.847809 
M324.030609,205.593628 
	C326.968170,207.759018 329.350220,209.792252 324.270905,212.440750 
	C323.308136,212.942764 323.207092,215.097458 322.323944,217.563019 
	C325.997925,216.720551 328.516846,216.142944 330.979309,215.578293 
	C332.234314,217.512680 333.480774,219.433884 335.281067,222.208771 
	C337.851532,216.642685 337.778564,210.157990 343.908325,210.134109 
	C340.927338,206.377670 338.047546,202.548660 334.882446,198.972198 
	C334.397705,198.424408 331.764893,198.672424 331.538879,199.180786 
	C330.107178,202.400681 328.228424,202.765656 325.289398,201.140167 
	C324.676941,200.801437 323.314728,201.818375 322.298035,202.210571 
	C322.697357,203.145401 323.096680,204.080231 324.030609,205.593628 
z"/>
<path fill="#000000" opacity="1.000000" stroke="none" 
	d="
M266.152222,193.004654 
	C266.100677,193.418381 266.049164,193.832123 265.713257,194.643799 
	C265.334900,195.359512 265.240875,195.677292 265.146881,195.995056 
	C265.095673,196.713654 265.044464,197.432236 264.626160,198.674744 
	C264.226074,200.460632 264.193085,201.722580 264.160126,202.984543 
	C263.291565,208.735977 262.422974,214.487411 261.554413,220.238846 
	C261.156433,220.198944 260.758423,220.159027 260.360443,220.119125 
	C261.244110,211.593918 261.387665,202.905655 263.219666,194.589340 
	C265.051697,186.272644 267.853210,177.980560 271.555145,170.317978 
	C275.237366,162.696182 280.567810,155.870667 286.288818,149.035736 
	C286.190338,150.218124 286.091827,151.400513 285.944427,153.170013 
	C287.277130,152.801895 288.476135,152.795700 289.224030,152.211746 
	C294.361755,148.200256 299.672119,144.350174 304.392853,139.883682 
	C308.066315,136.408035 312.231018,136.882233 316.407990,137.058090 
	C322.090057,137.297348 327.753845,137.971100 333.123657,138.432587 
	C304.089935,156.026688 282.158234,214.878250 299.419373,254.754944 
	C291.682526,249.261871 285.227539,244.092850 278.211517,239.852097 
	C270.188568,235.002762 267.453674,228.233719 267.913208,219.251968 
	C268.171265,214.208939 267.340363,209.110214 267.354462,203.436249 
	C267.753479,201.895187 267.798096,200.954422 267.842743,200.013672 
	C268.231445,197.959976 268.620178,195.906265 269.362030,193.332367 
	C268.364258,189.854492 267.208221,190.503754 266.152222,193.004654 
z"/>
<path fill="#000000" opacity="1.000000" stroke="none" 
	d="
M264.243469,170.332367 
	C256.160095,186.800430 253.000092,203.804581 254.781265,222.538025 
	C248.206329,217.943756 241.894974,213.851883 236.025085,209.202637 
	C234.602707,208.076050 234.379532,205.151154 234.041367,202.985046 
	C231.442032,186.335526 234.380295,170.504425 241.277832,155.274063 
	C241.789001,154.145370 241.921494,152.845169 242.356857,151.122894 
	C240.913544,151.236740 240.006821,151.308243 238.856323,151.398987 
	C240.306229,148.978943 241.611481,146.800339 242.251862,145.731461 
	C244.850754,145.144302 246.861908,145.261276 248.020508,144.324173 
	C251.959122,141.138611 255.517410,137.486145 259.404419,134.231140 
	C260.390717,133.405212 262.089691,132.971558 263.406525,133.072281 
	C273.468414,133.841858 283.516754,134.788345 294.287201,135.743484 
	C280.999207,145.260498 271.185883,156.295044 264.243469,170.332367 
z"/>
<path fill="#000000" opacity="1.000000" stroke="none" 
	d="
M215.126328,129.943787 
	C217.763626,129.629944 220.447754,128.837875 223.029556,129.090683 
	C231.224411,129.893143 239.381073,131.085342 248.455765,132.242035 
	C238.071808,140.165222 231.672119,150.253677 226.937180,161.499588 
	C222.126221,172.926025 220.883926,184.962769 220.964981,198.462646 
	C214.773926,194.033295 207.701660,191.039612 203.941895,185.709396 
	C200.090302,180.249054 199.637894,172.307907 201.432755,165.371841 
	C203.329559,158.041809 206.266678,150.980972 209.221527,143.328949 
	C210.497192,141.258087 211.300659,139.660782 212.104141,138.063492 
	C212.104141,138.063492 212.024933,138.030792 212.298737,137.988708 
	C212.759750,137.647217 212.946991,137.347809 213.134216,137.048401 
	C213.488571,137.049561 213.757217,136.898392 214.324585,136.220215 
	C215.877441,134.106598 217.045883,132.367676 218.516525,130.179001 
	C216.964783,130.071335 216.045547,130.007568 215.126328,129.943787 
z"/>
<path fill="#000000" opacity="1.000000" stroke="none" 
	d="
M196.704544,143.704803 
	C194.637589,149.569717 192.197083,155.027145 191.179077,160.738144 
	C190.287262,165.741165 190.992905,171.028931 190.992905,177.167099 
	C185.185593,173.226715 179.661514,169.839066 174.540863,165.923782 
	C165.762817,159.212021 164.480576,152.800659 170.080643,141.403717 
	C172.820831,135.827042 176.664612,130.781723 180.163132,125.600067 
	C180.701965,124.802010 182.143967,124.032639 183.048508,124.152657 
	C191.929382,125.331062 200.784897,126.700760 208.849686,127.897705 
	C204.895020,133.051788 200.922089,138.229660 196.704544,143.704803 
z"/>
<path fill="#000000" opacity="1.000000" stroke="none" 
	d="
M161.007248,150.081421 
	C161.411880,146.932022 161.816711,144.230469 162.221527,141.528931 
	C161.717926,141.298843 161.214325,141.068756 160.710724,140.838669 
	C156.833023,143.234314 157.968948,148.633224 155.440125,151.838425 
	C147.650085,147.415680 145.668396,142.463455 149.710159,133.949661 
	C155.381042,122.004158 158.815506,118.507652 170.384750,122.222511 
	C170.221298,123.726372 170.064728,125.166801 169.883316,126.835815 
	C171.337219,126.259560 172.467529,125.811569 175.142044,124.751534 
	C166.236267,134.734543 161.104614,144.855469 163.309479,157.446320 
	C162.858704,157.435608 162.407928,157.424896 161.957153,157.414185 
	C161.640579,155.119217 161.324005,152.824234 161.007248,150.081421 
z"/>
<path fill="#000000" opacity="1.000000" stroke="none" 
	d="
M145.150726,130.990372 
	C144.293625,135.723053 143.436539,140.455734 142.612564,145.005508 
	C141.322037,145.005508 138.944061,144.945312 136.569992,145.016083 
	C126.998436,145.301407 126.687233,139.439041 128.703934,133.028458 
	C130.405411,127.619911 133.368881,122.552750 136.192154,117.571625 
	C138.188004,114.050293 141.357452,112.825531 145.371292,114.830032 
	C148.467667,116.376350 151.701172,117.648033 154.813675,119.015450 
	C152.756149,120.921539 150.974762,122.571823 148.713959,124.465866 
	C147.049850,124.413742 145.431992,123.469185 144.749252,123.925072 
	C139.508163,127.424683 137.371780,135.301102 140.331619,142.037582 
	C141.080322,139.878754 141.744751,138.569183 141.975296,137.187210 
	C142.741501,132.594315 143.176193,131.607178 145.150726,130.990372 
z"/>
<path fill="#000000" opacity="1.000000" stroke="none" 
	d="
M384.673584,210.163666 
	C381.832214,204.550949 381.281128,199.365265 384.496033,193.928726 
	C387.111450,189.506027 389.071655,188.703476 394.543732,191.091202 
	C391.332001,196.465302 388.746246,201.754684 390.775970,208.507965 
	C392.785156,215.192688 397.313934,218.505142 403.142120,220.523758 
	C396.126099,221.728195 389.429535,218.095169 384.673584,210.163666 
z"/>
<path fill="#000000" opacity="1.000000" stroke="none" 
	d="
M362.987915,192.807831 
	C365.354523,199.215134 368.657288,204.254364 376.399841,205.529800 
	C365.019745,207.211655 353.230713,197.828522 356.382416,186.387146 
	C364.219818,185.560669 365.193420,186.448212 362.987915,192.807831 
z"/>
<path fill="#000000" opacity="1.000000" stroke="none" 
	d="
M400.243652,204.280396 
	C401.475250,200.184128 402.430786,196.373077 403.429840,192.388672 
	C407.734680,192.871719 409.727234,195.049561 408.997437,199.517715 
	C408.135498,204.795227 402.030273,208.547791 395.476715,207.291214 
	C397.248993,206.215576 398.608276,205.390594 400.243652,204.280396 
z"/>
<path fill="#FAF4E9" opacity="1.000000" stroke="none" 
	d="
M145.391922,130.774887 
	C143.176193,131.607178 142.741501,132.594315 141.975296,137.187210 
	C141.744751,138.569183 141.080322,139.878754 140.331619,142.037582 
	C137.371780,135.301102 139.508163,127.424683 144.749252,123.925072 
	C145.431992,123.469185 147.049850,124.413742 148.592133,124.777649 
	C147.844162,126.750252 146.738632,128.654831 145.391922,130.774887 
z"/>
<path fill="#000000" opacity="1.000000" stroke="none" 
	d="
M345.169830,272.448425 
	C344.205048,275.376190 343.410065,277.948303 342.514893,280.844574 
	C340.022247,276.284424 340.267578,272.325928 343.769745,268.763702 
	C345.873474,266.623962 348.105347,264.736023 351.094452,267.994995 
	C349.146484,269.382050 347.243073,270.737396 345.169830,272.448425 
z"/>
<path fill="#000000" opacity="1.000000" stroke="none" 
	d="
M371.138641,197.591553 
	C370.037964,194.726059 369.189606,192.160797 368.341278,189.595520 
	C368.999420,189.227371 369.657562,188.859207 370.315735,188.491058 
	C371.541016,190.097290 373.400024,191.562912 373.797119,193.352875 
	C374.133209,194.867737 372.777161,196.757980 372.169952,198.482101 
	C371.910309,198.285324 371.650635,198.088547 371.138641,197.591553 
z"/>
<path fill="#000000" opacity="1.000000" stroke="none" 
	d="
M333.015350,260.689758 
	C333.015625,259.451385 332.974609,258.625916 333.018951,257.805084 
	C333.255188,253.431244 334.564056,252.787079 337.635010,254.585617 
	C336.581604,258.300964 335.596405,261.775665 334.697144,264.947449 
	C334.400787,264.271088 333.707092,262.687958 333.015350,260.689758 
z"/>
<path fill="#FBF3EA" opacity="1.000000" stroke="none" 
	d="
M214.759796,130.019897 
	C216.045547,130.007568 216.964783,130.071335 218.516525,130.179001 
	C217.045883,132.367676 215.877441,134.106598 214.380157,135.986420 
	C214.165298,134.116898 214.279297,132.106461 214.759796,130.019897 
z"/>
<path fill="#FBF3EA" opacity="1.000000" stroke="none" 
	d="
M211.796509,138.026108 
	C211.300659,139.660782 210.497192,141.258087 209.369934,142.993042 
	C209.600494,140.468506 205.451187,137.647629 209.657791,135.047745 
	C209.998428,134.998337 210.017715,135.012741 210.017731,135.012741 
	C210.508102,136.004730 210.998474,136.996719 211.796509,138.026108 
z"/>
<path fill="#FBF3EA" opacity="1.000000" stroke="none" 
	d="
M204.597504,143.356171 
	C204.171997,142.555542 203.921753,141.532974 203.671524,140.510406 
	C204.161880,140.457703 204.652252,140.405014 205.142609,140.352310 
	C205.019333,141.279633 204.896057,142.206940 204.597504,143.356171 
z"/>
<path fill="#FBF4ED" opacity="1.000000" stroke="none" 
	d="
M266.524414,193.005600 
	C267.208221,190.503754 268.364258,189.854492 269.421417,192.935654 
	C268.383972,193.041611 267.640289,193.024078 266.524414,193.005600 
z"/>
<path fill="#FBF3EA" opacity="1.000000" stroke="none" 
	d="
M209.989594,134.989594 
	C210.223221,134.113953 210.465683,133.247040 210.708145,132.380112 
	C211.013672,132.499512 211.319199,132.618896 211.624725,132.738297 
	C211.271881,133.400314 210.919022,134.062332 210.291946,134.868561 
	C210.017715,135.012741 209.998428,134.998337 209.989594,134.989594 
z"/>
<path fill="#FBF4ED" opacity="1.000000" stroke="none" 
	d="
M264.398010,202.715851 
	C264.193085,201.722580 264.226074,200.460632 264.607727,199.035950 
	C264.849579,200.064545 264.742767,201.255859 264.398010,202.715851 
z"/>
<path fill="#FBF4ED" opacity="1.000000" stroke="none" 
	d="
M267.612549,200.255508 
	C267.798096,200.954422 267.753479,201.895187 267.375610,202.978439 
	C267.155701,202.246414 267.269012,201.371872 267.612549,200.255508 
z"/>
<path fill="#FBF4ED" opacity="1.000000" stroke="none" 
	d="
M265.340881,195.856216 
	C265.240875,195.677292 265.334900,195.359512 265.693420,194.957489 
	C265.897736,195.195114 265.756714,195.476501 265.340881,195.856216 
z"/>
<path fill="#FBF3EA" opacity="1.000000" stroke="none" 
	d="
M212.893188,137.155640 
	C212.946991,137.347809 212.759750,137.647217 212.313599,138.028900 
	C212.253815,137.828400 212.452972,137.545624 212.893188,137.155640 
z"/>
<path fill="#000000" opacity="1.000000" stroke="none" 
	d="
M427.943146,166.796021 
	C428.510986,167.639084 429.028076,168.097763 429.577698,168.585312 
	C425.749939,168.230942 421.801422,164.277557 422.167999,160.244690 
	C422.386414,157.841736 421.943451,153.954178 425.539368,153.983276 
	C426.362335,158.330032 427.127380,162.370834 427.943146,166.796021 
z"/>
<path fill="#000000" opacity="1.000000" stroke="none" 
	d="
M410.944397,161.064407 
	C409.307312,158.960327 407.629120,156.884979 406.104248,154.702515 
	C405.969086,154.509048 406.760895,153.251282 407.253601,153.154114 
	C407.736267,153.058884 408.651215,153.684998 408.915710,154.221588 
	C409.813660,156.043442 410.507843,157.965744 411.309784,160.288910 
	C411.207977,160.840210 411.076202,160.952301 410.944397,161.064407 
z"/>
<path fill="#000000" opacity="1.000000" stroke="none" 
	d="
M411.550964,160.577301 
	C412.082916,160.867523 412.403687,161.308578 412.724426,161.749634 
	C412.193604,161.707809 411.662750,161.665970 411.038147,161.344269 
	C411.076202,160.952301 411.207977,160.840210 411.550964,160.577301 
z"/>
<path fill="#000000" opacity="1.000000" stroke="none" 
	d="
M467.015442,207.301483 
	C467.271027,206.389130 467.657684,205.382187 467.779816,205.413315 
	C471.947540,206.475616 476.090210,207.636337 480.667236,208.902008 
	C481.170685,212.348709 481.785553,216.558365 482.501801,221.462173 
	C477.311249,217.468979 474.121704,219.178864 472.363525,225.082794 
	C472.690277,218.215637 468.636139,215.859802 462.844299,214.521210 
	C466.638092,213.421677 468.859589,211.634628 467.015442,207.301483 
z"/>
<path fill="#000000" opacity="1.000000" stroke="none" 
	d="
M391.704529,305.767334 
	C393.786407,304.026154 395.571686,302.506012 397.359375,300.983826 
	C398.791290,301.764801 400.667664,302.788208 402.797150,303.949646 
	C401.812042,306.558289 400.651337,309.631805 399.451752,312.808350 
	C396.778595,312.808350 394.005798,312.808350 392.179474,312.808350 
	C391.485413,310.301361 390.909393,308.220795 390.320618,306.094055 
	C390.129303,306.112640 390.768585,306.050476 391.704529,305.767334 
z"/>
<path fill="#000000" opacity="1.000000" stroke="none" 
	d="
M381.131897,241.308655 
	C376.973969,238.884155 376.850952,236.485641 380.425446,231.455109 
	C381.811951,233.513565 383.229950,235.618729 384.410919,237.372009 
	C383.344025,238.821487 382.297546,240.243240 381.131897,241.308655 
z"/>
<path fill="#000000" opacity="1.000000" stroke="none" 
	d="
M494.052521,174.026917 
	C498.293335,173.287567 502.093079,170.248871 506.562103,174.147491 
	C505.265381,175.853271 504.295166,178.479874 502.847443,178.776581 
	C498.773834,179.611542 494.498657,179.621460 490.321472,179.464523 
	C490.018127,179.453125 489.863495,175.483856 489.650208,173.454544 
	C491.514862,173.723251 492.573578,173.875824 494.052521,174.026917 
z"/>
<path fill="#000000" opacity="1.000000" stroke="none" 
	d="
M460.859985,273.381470 
	C464.536530,275.484253 467.976196,277.305542 471.664795,279.258667 
	C467.052338,283.862366 460.033569,281.904572 453.788788,274.978699 
	C455.825165,273.286957 456.927277,269.250000 460.859985,273.381470 
z"/>
<path fill="#000000" opacity="1.000000" stroke="none" 
	d="
M424.347412,295.806793 
	C424.509308,294.856140 424.913757,294.171631 425.312805,293.488281 
	C428.743103,296.929993 432.178802,300.370575 435.614502,303.811127 
	C435.081604,304.337250 434.548676,304.863373 434.015778,305.389496 
	C430.873871,302.283966 427.731934,299.178436 424.347412,295.806793 
z"/>
<path fill="#000000" opacity="1.000000" stroke="none" 
	d="
M405.286407,264.001526 
	C403.302734,265.355469 401.702179,266.705627 399.832214,268.283051 
	C399.235535,267.224762 398.736786,266.340149 398.235260,265.450623 
	C401.065399,263.666931 403.847168,261.913757 406.628937,260.160583 
	C406.876709,260.355804 407.124512,260.551025 407.372314,260.746246 
	C406.804718,261.830078 406.237091,262.913879 405.286407,264.001526 
z"/>
<path fill="#FAF1E4" opacity="1.000000" stroke="none" 
	d="
M323.763306,205.304352 
	C323.096680,204.080231 322.697357,203.145401 322.298035,202.210571 
	C323.314728,201.818375 324.676941,200.801437 325.289398,201.140167 
	C328.228424,202.765656 330.107178,202.400681 331.538879,199.180786 
	C331.764893,198.672424 334.397705,198.424408 334.882446,198.972198 
	C338.047546,202.548660 340.927338,206.377670 343.908325,210.134109 
	C337.778564,210.157990 337.851532,216.642685 335.281067,222.208771 
	C333.480774,219.433884 332.234314,217.512680 330.979309,215.578293 
	C328.516846,216.142944 325.997925,216.720551 322.323944,217.563019 
	C323.207092,215.097458 323.308136,212.942764 324.270905,212.440750 
	C329.350220,209.792252 326.968170,207.759018 323.763306,205.304352 
M335.484619,207.016403 
	C334.920197,206.062805 334.355774,205.109192 333.765930,204.112625 
	C332.507629,205.014557 331.381439,205.821808 329.753784,206.988510 
	C331.256683,209.031357 332.728607,211.032089 334.200531,213.032806 
	C334.799591,212.890320 335.398621,212.747849 335.997650,212.605377 
	C335.997650,210.919296 335.997650,209.233215 335.484619,207.016403 
z"/>
<path fill="#000000" opacity="1.000000" stroke="none" 
	d="
M335.741150,207.281769 
	C335.997650,209.233215 335.997650,210.919296 335.997650,212.605377 
	C335.398621,212.747849 334.799591,212.890320 334.200531,213.032806 
	C332.728607,211.032089 331.256683,209.031357 329.753784,206.988510 
	C331.381439,205.821808 332.507629,205.014557 333.765930,204.112625 
	C334.355774,205.109192 334.920197,206.062805 335.741150,207.281769 
z"/>
</svg>