<svg version="1.1" id="Layer_1" xmlns="http://www.w3.org/2000/svg" xmlns:xlink="http://www.w3.org/1999/xlink" x="0px" y="0px"
	 width="100%" viewBox="0 0 593 421" enable-background="new 0 0 593 421" xml:space="preserve">
<path fill="#000000" opacity="1.000000" stroke="none" 
	d="
M368.000000,422.000000 
	C245.333359,422.000000 123.166725,422.000000 1.000066,422.000000 
	C1.000044,281.666718 1.000044,141.333466 1.000022,1.000141 
	C198.666565,1.000094 396.333130,1.000094 593.999756,1.000047 
	C593.999878,141.333191 593.999878,281.666382 593.999939,421.999786 
	C518.833313,422.000000 443.666656,422.000000 368.000000,422.000000 
M314.994080,177.601868 
	C313.708008,181.196442 312.421936,184.791016 310.879730,189.101501 
	C317.569244,187.943832 322.592804,178.193817 321.496063,171.120209 
	C316.543884,170.025513 317.390411,174.923401 314.994080,177.601868 
M285.982330,168.291595 
	C286.992310,164.495056 288.150970,160.727142 288.892181,156.878845 
	C289.048370,156.067703 287.858795,154.557281 286.938171,154.135620 
	C286.338074,153.860764 284.479156,154.776688 284.256683,155.492508 
	C282.990265,159.567383 281.855865,163.708359 281.103638,167.903427 
	C280.863037,169.245056 281.925079,170.820251 282.724213,173.338058 
	C284.192993,171.081223 284.877960,170.028717 285.982330,168.291595 
M282.580322,135.026199 
	C281.600555,133.391617 280.770264,131.636658 279.586426,130.166397 
	C278.844574,129.245102 277.571014,128.751938 276.536041,128.066696 
	C276.048981,129.495865 274.789185,131.233078 275.214020,132.298706 
	C276.727783,136.095901 278.747864,139.701584 280.737640,143.290298 
	C281.159790,144.051666 282.529907,145.057434 282.993835,144.858078 
	C283.841858,144.493668 284.974518,143.218384 284.865540,142.491302 
	C284.520203,140.187195 283.656464,137.960785 282.580322,135.026199 
M290.521698,138.972168 
	C289.677094,140.952667 286.683838,142.966949 290.621765,144.864471 
	C295.910919,140.584030 301.145325,136.261276 300.804291,128.844376 
	C300.199554,128.445389 299.594849,128.046417 298.990112,127.647438 
	C296.309052,131.220734 293.627991,134.794037 290.521698,138.972168 
M266.520813,140.014389 
	C265.052948,140.859146 263.585114,141.703918 262.117249,142.548676 
	C262.941895,143.408905 263.626801,144.763947 264.615509,145.043091 
	C268.730469,146.204849 272.913910,147.181641 277.129700,147.878754 
	C277.948395,148.014114 279.023895,146.596268 279.980957,145.894882 
	C279.248566,145.024353 278.673096,143.664246 277.755890,143.370239 
	C274.266968,142.251831 270.667633,141.477768 266.520813,140.014389 
M279.196320,157.304169 
	C279.980591,155.730026 280.764862,154.155884 281.719757,152.239227 
	C275.292450,151.932205 267.151764,158.354095 267.270386,162.672729 
	C272.621277,164.786835 274.795990,159.344910 279.196320,157.304169 
M309.682373,150.999146 
	C309.610809,149.038467 309.539246,147.077805 309.467682,145.117142 
	C305.197235,145.678360 300.915863,146.173096 296.668060,146.871948 
	C296.025757,146.977631 294.956329,148.279678 295.092773,148.603729 
	C295.478119,149.518799 296.351227,150.845078 297.097168,150.888397 
	C301.002594,151.115112 304.928192,150.994492 309.682373,150.999146 
M299.619751,168.108185 
	C302.121552,169.924438 303.787354,169.186264 303.963989,166.238449 
	C304.140656,163.290115 296.694153,155.676514 293.202911,155.015244 
	C292.054993,160.693954 296.520172,163.718491 299.619751,168.108185 
M299.361206,206.122711 
	C302.833588,202.813644 307.862030,200.873795 309.364746,195.037491 
	C303.124237,194.765152 300.031525,199.060333 296.378845,202.179901 
	C295.581512,202.860840 295.508179,204.389496 295.101379,205.527740 
	C296.360840,205.923325 297.620331,206.318893 299.361206,206.122711 
M305.089142,187.678391 
	C306.058960,186.809189 307.756714,186.025604 307.870758,185.055771 
	C308.328583,181.162659 301.544434,175.114975 297.292450,175.299316 
	C297.199066,175.433975 297.046173,175.558380 297.020905,175.704788 
	C295.954651,181.882767 302.438477,183.042114 305.089142,187.678391 
M332.009613,184.454605 
	C331.638000,183.759033 330.974518,182.438644 330.936218,182.456528 
	C326.625916,184.470322 322.362213,186.583878 318.095917,188.691910 
	C318.946075,189.729553 320.310486,191.783371 320.569275,191.652405 
	C324.462860,189.682114 328.210938,187.424301 332.009613,184.454605 
M318.169495,193.964554 
	C317.442535,194.365997 316.128113,194.747681 316.113770,195.173080 
	C316.085999,195.999588 316.628784,197.436172 317.214050,197.595474 
	C320.738495,198.554779 324.318542,199.418304 327.935364,199.854874 
	C328.857330,199.966156 329.979950,198.414963 331.010376,197.627625 
	C330.032349,196.754257 329.179016,195.388138 328.052155,195.102951 
	C325.064087,194.346710 321.957825,194.057541 318.169495,193.964554 
M303.124725,189.012161 
	C299.977966,189.013138 296.815643,188.840485 293.693756,189.119629 
	C292.741913,189.204727 291.901215,190.533295 291.009613,191.292374 
	C291.658417,192.045319 292.408142,193.512955 292.940063,193.437866 
	C297.097473,192.850906 301.213043,191.967728 305.341583,191.175964 
	C304.901031,190.454727 304.460480,189.733490 303.124725,189.012161 
M314.996002,200.661972 
	C314.045532,199.603745 313.095062,198.545517 312.144562,197.487289 
	C311.689880,197.770645 311.235199,198.054001 310.780518,198.337357 
	C311.276733,202.821930 311.772919,207.306519 312.453491,213.457474 
	C314.136169,211.450073 315.792694,210.375153 315.858917,209.209808 
	C316.002899,206.677612 315.335052,204.099243 314.996002,200.661972 
z"/>
<path fill="#E4E3EC" opacity="1.000000" stroke="none" 
	d="
M315.233154,177.283005 
	C317.390411,174.923401 316.543884,170.025513 321.499817,171.124069 
	C322.592804,178.193817 317.569244,187.943832 310.879730,189.101501 
	C312.421936,184.791016 313.708008,181.196442 315.233154,177.283005 
z"/>
<path fill="#E4E3EC" opacity="1.000000" stroke="none" 
	d="
M285.772644,168.633911 
	C284.877960,170.028717 284.192993,171.081223 282.724213,173.338058 
	C281.925079,170.820251 280.863037,169.245056 281.103638,167.903427 
	C281.855865,163.708359 282.990265,159.567383 284.256683,155.492508 
	C284.479156,154.776688 286.338074,153.860764 286.938171,154.135620 
	C287.858795,154.557281 289.048370,156.067703 288.892181,156.878845 
	C288.150970,160.727142 286.992310,164.495056 285.772644,168.633911 
z"/>
<path fill="#E4E3EC" opacity="1.000000" stroke="none" 
	d="
M282.786743,135.365265 
	C283.656464,137.960785 284.520203,140.187195 284.865540,142.491302 
	C284.974518,143.218384 283.841858,144.493668 282.993835,144.858078 
	C282.529907,145.057434 281.159790,144.051666 280.737640,143.290298 
	C278.747864,139.701584 276.727783,136.095901 275.214020,132.298706 
	C274.789185,131.233078 276.048981,129.495865 276.536041,128.066696 
	C277.571014,128.751938 278.844574,129.245102 279.586426,130.166397 
	C280.770264,131.636658 281.600555,133.391617 282.786743,135.365265 
z"/>
<path fill="#E4E3EC" opacity="1.000000" stroke="none" 
	d="
M290.734314,138.669754 
	C293.627991,134.794037 296.309052,131.220734 298.990112,127.647438 
	C299.594849,128.046417 300.199554,128.445389 300.804291,128.844376 
	C301.145325,136.261276 295.910919,140.584030 290.621765,144.864471 
	C286.683838,142.966949 289.677094,140.952667 290.734314,138.669754 
z"/>
<path fill="#E4E3EC" opacity="1.000000" stroke="none" 
	d="
M266.815186,140.294708 
	C270.667633,141.477768 274.266968,142.251831 277.755890,143.370239 
	C278.673096,143.664246 279.248566,145.024353 279.980957,145.894882 
	C279.023895,146.596268 277.948395,148.014114 277.129700,147.878754 
	C272.913910,147.181641 268.730469,146.204849 264.615509,145.043091 
	C263.626801,144.763947 262.941895,143.408905 262.117249,142.548676 
	C263.585114,141.703918 265.052948,140.859146 266.815186,140.294708 
z"/>
<path fill="#E4E3EC" opacity="1.000000" stroke="none" 
	d="
M278.922363,157.599136 
	C274.795990,159.344910 272.621277,164.786835 267.271118,162.674469 
	C267.151764,158.354095 275.292450,151.932205 281.719757,152.239227 
	C280.764862,154.155884 279.980591,155.730026 278.922363,157.599136 
z"/>
<path fill="#E4E3EC" opacity="1.000000" stroke="none" 
	d="
M309.264587,150.996887 
	C304.928192,150.994492 301.002594,151.115112 297.097168,150.888397 
	C296.351227,150.845078 295.478119,149.518799 295.092773,148.603729 
	C294.956329,148.279678 296.025757,146.977631 296.668060,146.871948 
	C300.915863,146.173096 305.197235,145.678360 309.467651,145.117126 
	C309.539246,147.077805 309.610809,149.038467 309.264587,150.996887 
z"/>
<path fill="#E4E3EC" opacity="1.000000" stroke="none" 
	d="
M299.328064,167.859833 
	C296.520172,163.718491 292.054993,160.693954 293.202911,155.015244 
	C296.694153,155.676514 304.140656,163.290115 303.963989,166.238449 
	C303.787354,169.186264 302.121552,169.924438 299.328064,167.859833 
z"/>
<path fill="#E4E3EC" opacity="1.000000" stroke="none" 
	d="
M299.120483,206.418579 
	C297.620331,206.318893 296.360840,205.923325 295.101379,205.527740 
	C295.508179,204.389496 295.581512,202.860840 296.378845,202.179901 
	C300.031525,199.060333 303.124237,194.765152 309.364746,195.037491 
	C307.862030,200.873795 302.833588,202.813644 299.120483,206.418579 
z"/>
<path fill="#E4E3EC" opacity="1.000000" stroke="none" 
	d="
M304.840454,187.381348 
	C302.438477,183.042114 295.954651,181.882767 297.020905,175.704788 
	C297.046173,175.558380 297.199066,175.433975 297.292450,175.299316 
	C301.544434,175.114975 308.328583,181.162659 307.870758,185.055771 
	C307.756714,186.025604 306.058960,186.809189 304.840454,187.381348 
z"/>
<path fill="#E4E3EC" opacity="1.000000" stroke="none" 
	d="
M332.001404,184.844330 
	C328.210938,187.424301 324.462860,189.682114 320.569275,191.652405 
	C320.310486,191.783371 318.946075,189.729553 318.095917,188.691895 
	C322.362213,186.583878 326.625916,184.470322 330.936218,182.456528 
	C330.974518,182.438644 331.638000,183.759033 332.001404,184.844330 
z"/>
<path fill="#E4E3EC" opacity="1.000000" stroke="none" 
	d="
M318.534058,193.773560 
	C321.957825,194.057541 325.064087,194.346710 328.052155,195.102951 
	C329.179016,195.388138 330.032349,196.754257 331.010376,197.627625 
	C329.979950,198.414963 328.857330,199.966156 327.935364,199.854874 
	C324.318542,199.418304 320.738495,198.554779 317.214050,197.595474 
	C316.628784,197.436172 316.085999,195.999588 316.113770,195.173080 
	C316.128113,194.747681 317.442535,194.365997 318.534058,193.773560 
z"/>
<path fill="#E4E3EC" opacity="1.000000" stroke="none" 
	d="
M303.572327,189.012207 
	C304.460480,189.733490 304.901031,190.454727 305.341553,191.175964 
	C301.213043,191.967728 297.097473,192.850906 292.940063,193.437866 
	C292.408142,193.512955 291.658417,192.045319 291.009613,191.292374 
	C291.901215,190.533295 292.741913,189.204727 293.693756,189.119629 
	C296.815643,188.840485 299.977966,189.013138 303.572327,189.012207 
z"/>
<path fill="#E4E3EC" opacity="1.000000" stroke="none" 
	d="
M314.997559,201.100861 
	C315.335052,204.099243 316.002899,206.677612 315.858917,209.209808 
	C315.792694,210.375153 314.136169,211.450073 312.453491,213.457474 
	C311.772919,207.306519 311.276733,202.821930 310.780518,198.337357 
	C311.235199,198.054001 311.689880,197.770645 312.144562,197.487289 
	C313.095062,198.545517 314.045532,199.603745 314.997559,201.100861 
z"/>
</svg>