<svg version="1.1" id="Layer_1" xmlns="http://www.w3.org/2000/svg" xmlns:xlink="http://www.w3.org/1999/xlink" x="0px" y="0px"
	 width="100%" viewBox="0 0 593 421" enable-background="new 0 0 593 421" xml:space="preserve">
<path fill="none" opacity="1.000000" stroke="none" 
	d="
M369.000000,422.000000 
	C246.000031,422.000000 123.500061,422.000000 1.000066,422.000000 
	C1.000044,281.666718 1.000044,141.333466 1.000022,1.000141 
	C198.666565,1.000094 396.333130,1.000094 593.999756,1.000047 
	C593.999878,141.333191 593.999878,281.666382 593.999939,421.999786 
	C519.166687,422.000000 444.333344,422.000000 369.000000,422.000000 
M238.840225,225.341187 
	C237.895523,224.890671 236.950836,224.440155 235.999924,223.999863 
	C235.999924,223.999863 236.010162,223.993958 235.809814,223.318039 
	C234.940155,222.569794 233.877197,221.956833 233.239777,221.046051 
	C231.769104,218.944687 229.125259,216.475510 229.435822,214.556671 
	C230.146210,210.167648 233.591614,207.445465 238.251648,207.012451 
	C243.150375,206.557236 248.158340,206.768936 252.951324,205.832886 
	C257.398315,204.964417 262.445007,203.955048 265.743469,201.218658 
	C270.007843,197.680954 269.162415,189.322128 265.360748,184.840652 
	C263.193054,182.285294 260.840607,179.886673 258.451630,177.287247 
	C263.243378,171.979843 266.399323,165.429474 262.928955,158.259125 
	C259.782410,151.757812 255.575073,145.886246 256.544556,138.106522 
	C256.698273,136.873016 255.699417,135.355438 254.923462,134.172516 
	C252.453476,130.407043 250.198776,125.190918 244.654327,127.239647 
	C241.626251,128.358551 239.597260,132.181244 236.399536,135.538620 
	C248.395782,136.759720 250.094589,137.993546 250.684250,144.685028 
	C246.329056,144.460983 241.961533,144.283524 237.600998,143.999023 
	C233.030640,143.700790 232.024994,146.736969 231.298828,150.316681 
	C230.603165,153.746094 231.643066,156.471634 234.675888,157.900635 
	C240.120163,160.465897 245.783951,161.201553 251.498077,158.426208 
	C255.766296,162.466522 255.747437,163.279816 251.162704,171.500458 
	C251.458633,171.820221 251.754547,172.139969 252.050476,172.459732 
	C253.817017,170.732483 255.583572,169.005234 257.573578,167.059494 
	C257.693542,167.497589 258.078918,168.101578 257.945435,168.551743 
	C257.233704,170.952240 256.392212,173.314270 255.595596,175.689621 
	C253.944016,174.890747 252.312988,174.044128 250.629562,173.319229 
	C250.050110,173.069717 249.342255,173.088928 248.689056,173.044891 
	C243.465500,172.692795 238.242294,172.174561 233.015915,172.137573 
	C231.682053,172.128128 229.430405,173.451904 229.187836,174.522705 
	C228.695038,176.698196 228.052368,179.760696 232.259918,180.817734 
	C235.601761,184.755005 240.026657,182.454834 244.830399,183.011368 
	C249.850128,181.953308 254.595016,182.423004 258.862915,186.236801 
	C259.232086,186.448593 259.601257,186.660385 260.509796,187.074249 
	C260.964813,187.396805 261.419800,187.719360 262.000549,188.767715 
	C264.211365,191.837646 263.882050,194.579056 260.120483,197.004044 
	C256.172180,197.682892 252.216751,198.323135 248.277008,199.048477 
	C239.700348,200.627533 231.361908,202.478027 226.970978,211.458221 
	C225.056213,215.374268 226.190735,221.537720 229.995468,224.509323 
	C229.995468,224.509323 230.134888,224.975128 230.132645,225.671875 
	C234.115982,228.789185 237.820847,232.377060 242.137268,234.931488 
	C253.050903,241.390060 264.209106,247.262390 268.333466,260.724304 
	C271.198456,270.075653 270.877319,277.025116 260.798218,281.586060 
	C257.940674,282.879181 254.910553,283.790985 251.088303,284.979004 
	C243.555725,285.778870 238.106277,282.743835 234.972549,275.286163 
	C233.235855,279.185974 231.836075,282.329254 230.111954,286.478241 
	C233.825958,293.279633 239.601837,296.047821 247.184372,294.994965 
	C251.152588,294.443939 255.080612,293.603424 259.573486,292.930634 
	C259.774597,292.634613 259.975708,292.338623 260.638184,291.948486 
	C260.940979,291.764923 261.074493,291.497040 261.773621,290.998138 
	C267.096130,288.700287 271.486572,285.349182 274.825165,279.753296 
	C282.042328,267.021698 279.568665,254.760925 270.657349,244.611374 
	C262.433411,235.244736 250.314438,230.953384 239.000305,225.999878 
	C239.000305,225.999878 239.020264,225.986252 238.840225,225.341187 
z"/>
<path fill="#CBA5DB" opacity="1.000000" stroke="none" 
	d="
M258.864410,185.535965 
	C254.595016,182.423004 249.850128,181.953308 244.492340,182.604431 
	C245.414124,181.584702 246.673965,180.971909 247.688446,180.478455 
	C246.818604,179.680084 245.910660,178.846741 245.108521,177.680344 
	C246.121201,177.185150 247.028076,177.022995 247.996155,177.220154 
	C250.689117,178.739227 253.320877,179.899033 256.025299,181.195343 
	C256.200226,181.371033 256.302460,181.410217 256.404724,181.449387 
	C256.291229,181.281952 256.177765,181.114517 255.999329,180.605194 
	C253.248688,178.854431 250.562988,177.445557 247.513443,175.876495 
	C242.197617,174.949768 237.245667,174.183197 232.293701,173.416626 
	C232.068741,174.037430 231.843765,174.658218 231.618805,175.279022 
	C232.420151,175.928986 233.221481,176.578964 233.972076,177.534515 
	C233.260681,178.604202 232.600037,179.368286 231.939392,180.132385 
	C228.052368,179.760696 228.695038,176.698196 229.187836,174.522705 
	C229.430405,173.451904 231.682053,172.128128 233.015915,172.137573 
	C238.242294,172.174561 243.465500,172.692795 248.689056,173.044891 
	C249.342255,173.088928 250.050110,173.069717 250.629562,173.319229 
	C252.312988,174.044128 253.944016,174.890747 255.595581,175.689621 
	C256.392212,173.314270 257.233704,170.952240 257.945435,168.551743 
	C258.078918,168.101578 257.693542,167.497589 257.573578,167.059494 
	C255.583572,169.005234 253.817017,170.732483 252.050476,172.459732 
	C251.754547,172.139969 251.458633,171.820221 251.162704,171.500458 
	C255.747437,163.279816 255.766296,162.466522 251.498077,158.426208 
	C245.783951,161.201553 240.120163,160.465897 234.675888,157.900635 
	C231.643066,156.471634 230.603165,153.746094 231.298828,150.316681 
	C232.024994,146.736969 233.030640,143.700790 237.600998,143.999023 
	C241.961533,144.283524 246.329056,144.460983 250.684250,144.685028 
	C250.094589,137.993546 248.395782,136.759720 236.399536,135.538620 
	C239.597260,132.181244 241.626251,128.358551 244.654327,127.239647 
	C250.198776,125.190918 252.453476,130.407043 254.923462,134.172516 
	C255.699417,135.355438 256.698273,136.873016 256.544556,138.106522 
	C255.575073,145.886246 259.782410,151.757812 262.928955,158.259125 
	C266.399323,165.429474 263.243378,171.979843 258.451630,177.287247 
	C260.840607,179.886673 263.193054,182.285294 265.360748,184.840652 
	C269.162415,189.322128 270.007843,197.680954 265.743469,201.218658 
	C262.445007,203.955048 257.398315,204.964417 252.951324,205.832886 
	C248.158340,206.768936 243.150375,206.557236 238.251648,207.012451 
	C233.591614,207.445465 230.146210,210.167648 229.435822,214.556671 
	C229.125259,216.475510 231.769104,218.944687 233.239777,221.046051 
	C233.877197,221.956833 234.940155,222.569794 235.566620,223.676453 
	C233.516708,224.033890 231.710007,224.032898 229.903290,224.031921 
	C226.190735,221.537720 225.056213,215.374268 226.970978,211.458221 
	C231.361908,202.478027 239.700348,200.627533 248.277008,199.048477 
	C252.216751,198.323135 256.172180,197.682892 260.913208,196.984711 
	C262.473785,196.973724 263.241669,196.982040 264.006897,197.239746 
	C264.004211,197.489136 263.987793,197.987488 263.609680,198.034546 
	C254.744675,200.003677 246.257782,201.925735 237.377182,203.936966 
	C243.049744,203.936966 248.206146,204.531570 253.144714,203.749847 
	C257.133453,203.118469 262.601135,204.015732 264.266418,198.004272 
	C264.779144,197.825974 265.040344,197.658356 265.301544,197.490738 
	C264.864502,197.330261 264.427460,197.169769 264.133484,196.697052 
	C264.694550,193.688690 265.668823,190.927383 265.362762,188.316132 
	C265.095734,186.037994 263.194489,186.674927 261.874817,188.041916 
	C261.419800,187.719360 260.964813,187.396805 260.080292,186.728577 
	C259.388672,186.100586 259.126526,185.818283 258.864410,185.535965 
M257.002869,153.605087 
	C252.911911,148.644531 247.176056,146.971191 241.213577,146.070755 
	C236.704803,145.389893 234.345627,147.684464 234.575119,151.866882 
	C240.200043,150.528946 246.229095,149.536301 250.801910,153.524506 
	C254.865860,157.068909 257.689423,162.035553 260.845673,166.097961 
	C263.342560,161.565506 259.564850,158.054932 257.002869,153.605087 
M244.229492,133.699631 
	C247.079498,135.246567 249.929504,136.793518 253.914993,138.956787 
	C252.228683,135.817276 251.327103,133.397690 249.799881,131.475082 
	C247.691162,128.820465 245.461105,129.540115 244.229492,133.699631 
M245.094208,157.011963 
	C246.351028,156.688675 247.607864,156.365372 249.716980,155.822830 
	C237.735672,151.902695 237.735672,151.902695 237.318192,157.011826 
	C239.629410,157.011826 241.918716,157.011826 245.094208,157.011963 
M261.600800,184.516800 
	C261.600800,184.516800 261.471924,184.596573 261.600800,184.516800 
z"/>
<path fill="#D6D4D8" opacity="1.000000" stroke="none" 
	d="
M261.038788,291.144775 
	C261.074493,291.497040 260.940979,291.764923 260.166962,292.073334 
	C259.472748,292.429993 259.249756,292.661835 259.026794,292.893677 
	C255.080612,293.603424 251.152588,294.443939 247.184372,294.994965 
	C239.601837,296.047821 233.825958,293.279633 230.738708,286.481018 
	C232.184753,286.652893 233.004044,286.822021 233.980621,287.329071 
	C236.086716,289.107910 237.952621,291.614502 240.001160,291.773895 
	C244.655853,292.136047 249.496094,291.802399 254.071457,290.845581 
	C256.708191,290.294128 258.975677,287.976990 261.409363,286.454651 
	C261.223999,286.259888 261.038666,286.065155 260.853302,285.870392 
	C257.918579,286.292297 254.983841,286.714172 252.035828,286.759583 
	C252.001556,285.881287 251.980560,285.379456 251.959579,284.877625 
	C254.910553,283.790985 257.940674,282.879181 260.798218,281.586060 
	C270.877319,277.025116 271.198456,270.075653 268.333466,260.724304 
	C264.209106,247.262390 253.050903,241.390060 242.137268,234.931488 
	C237.820847,232.377060 234.115982,228.789185 230.487274,225.357468 
	C232.445557,226.092117 233.982224,227.265915 235.664352,228.168732 
	C243.132446,232.177078 250.642227,236.107727 258.176636,240.395538 
	C262.155975,245.770584 266.095551,250.816528 270.119568,256.094391 
	C270.304504,256.678864 270.533844,256.894165 270.976532,257.171814 
	C271.061005,257.371399 271.053101,257.804779 271.129089,258.047119 
	C271.434265,258.517029 271.663391,258.744568 271.977936,259.269165 
	C272.060333,259.978058 272.057312,260.389984 272.128052,261.045837 
	C272.432251,261.517303 272.662720,261.744812 272.977966,262.311646 
	C273.006165,263.110291 272.949615,263.569641 272.617615,264.295074 
	C272.617706,266.736572 272.893250,268.912018 273.127991,271.439056 
	C273.113800,272.497131 273.140411,273.203583 272.793488,273.956726 
	C270.490875,277.523346 268.743347,281.160492 266.571350,284.523529 
	C265.022675,286.921478 262.903412,288.950897 261.038788,291.144775 
z"/>
<path fill="#CBA5DB" opacity="1.000000" stroke="none" 
	d="
M239.013626,225.978897 
	C250.314438,230.953384 262.433411,235.244736 270.657349,244.611374 
	C279.568665,254.760925 282.042328,267.021698 274.203033,279.897278 
	C273.391571,280.032898 273.202271,280.024536 273.006073,280.007812 
	C272.999146,279.999420 272.981873,279.985352 272.987122,279.591370 
	C273.308929,277.405731 273.625458,275.614136 273.949829,273.603271 
	C273.957642,273.384064 274.122192,272.977356 274.333008,272.850098 
	C274.746643,272.456390 274.881317,272.159088 274.947937,271.471802 
	C275.006012,270.401031 275.063934,269.689301 275.329498,268.856323 
	C275.737854,268.478546 275.880432,268.192993 275.984192,267.443787 
	C276.123535,254.331894 269.960449,245.595810 258.944763,239.540802 
	C255.610458,237.175247 252.256622,235.237137 249.039062,233.094360 
	C245.629745,230.823914 242.349976,228.358917 239.013626,225.978897 
z"/>
<path fill="#FAF8FB" opacity="1.000000" stroke="none" 
	d="
M239.006958,225.989380 
	C242.349976,228.358917 245.629745,230.823914 249.039062,233.094360 
	C252.256622,235.237137 255.610458,237.175247 258.736328,239.604080 
	C258.568268,240.004776 258.136932,240.066467 258.136932,240.066467 
	C250.642227,236.107727 243.132446,232.177078 235.664352,228.168732 
	C233.982224,227.265915 232.445557,226.092117 230.488403,225.009094 
	C230.134888,224.975128 229.995468,224.509323 229.949371,224.270615 
	C231.710007,224.032898 233.516708,224.033890 235.666794,224.014404 
	C236.010162,223.993958 235.999924,223.999863 236.038071,224.345978 
	C237.057556,225.123489 238.038910,225.554871 239.020264,225.986252 
	C239.020264,225.986252 239.000305,225.999878 239.006958,225.989380 
z"/>
<path fill="#CBA5DB" opacity="1.000000" stroke="none" 
	d="
M233.823349,286.991150 
	C233.004044,286.822021 232.184753,286.652893 230.900879,285.978149 
	C231.836075,282.329254 233.235855,279.185974 234.972549,275.286163 
	C238.106277,282.743835 243.555725,285.778870 251.523941,284.928314 
	C251.980560,285.379456 252.001556,285.881287 251.822510,287.112335 
	C245.374344,288.437744 239.771454,287.046783 234.548080,281.768982 
	C234.247681,283.933594 234.035507,285.462372 233.823349,286.991150 
z"/>
<path fill="#FAF8FB" opacity="1.000000" stroke="none" 
	d="
M245.002731,178.013397 
	C245.910660,178.846741 246.818604,179.680084 247.688446,180.478455 
	C246.673965,180.971909 245.414124,181.584702 244.068634,182.525421 
	C240.026657,182.454834 235.601761,184.755005 232.099655,180.475067 
	C232.600037,179.368286 233.260681,178.604202 234.393890,177.472885 
	C236.568604,177.149063 238.270782,177.192459 239.974869,177.559647 
	C240.340973,178.470001 240.705170,179.056564 241.069351,179.643112 
	C241.718353,179.074860 242.367355,178.506607 243.343658,178.004761 
	C244.114883,178.051895 244.558807,178.032639 245.002731,178.013397 
z"/>
<path fill="#FAF8FB" opacity="1.000000" stroke="none" 
	d="
M273.013000,280.016174 
	C273.202271,280.024536 273.391571,280.032898 273.865112,280.043579 
	C271.486572,285.349182 267.096130,288.700287 261.406189,291.071472 
	C262.903412,288.950897 265.022675,286.921478 266.571350,284.523529 
	C268.743347,281.160492 270.490875,277.523346 272.991486,273.972534 
	C273.563019,273.941620 273.942017,273.822510 273.942017,273.822510 
	C273.625458,275.614136 273.308929,277.405731 272.838928,279.645752 
	C272.794647,280.068176 272.903809,280.042175 273.013000,280.016174 
z"/>
<path fill="#FAF8FB" opacity="1.000000" stroke="none" 
	d="
M264.009552,196.990372 
	C263.241669,196.982040 262.473785,196.973724 261.322021,196.973846 
	C263.882050,194.579056 264.211365,191.837646 261.937683,188.404816 
	C263.194489,186.674927 265.095734,186.037994 265.362762,188.316132 
	C265.668823,190.927383 264.694550,193.688690 264.138245,196.692413 
	C264.000000,197.000000 264.009552,196.990372 264.009552,196.990372 
z"/>
<path fill="#CBA5DB" opacity="1.000000" stroke="none" 
	d="
M238.930237,225.663727 
	C238.038910,225.554871 237.057556,225.123489 236.041168,224.340866 
	C236.950836,224.440155 237.895523,224.890671 238.930237,225.663727 
z"/>
<path fill="#FAF8FB" opacity="1.000000" stroke="none" 
	d="
M259.300140,292.912170 
	C259.249756,292.661835 259.472748,292.429993 259.936279,292.120392 
	C259.975708,292.338623 259.774597,292.634613 259.300140,292.912170 
z"/>
<path fill="#FAF8FB" opacity="1.000000" stroke="none" 
	d="
M258.863647,185.886383 
	C259.126526,185.818283 259.388672,186.100586 259.810608,186.627533 
	C259.601257,186.660385 259.232086,186.448593 258.863647,185.886383 
z"/>
<path fill="none" opacity="1.000000" stroke="none" 
	d="
M257.281860,153.854156 
	C259.564850,158.054932 263.342560,161.565506 260.845673,166.097961 
	C257.689423,162.035553 254.865860,157.068909 250.801910,153.524506 
	C246.229095,149.536301 240.200043,150.528946 234.575287,151.864929 
	C234.345627,147.684464 236.704803,145.389893 241.213577,146.070755 
	C247.176056,146.971191 252.911911,148.644531 257.281860,153.854156 
z"/>
<path fill="#FAF8FB" opacity="1.000000" stroke="none" 
	d="
M264.014923,198.014969 
	C262.601135,204.015732 257.133453,203.118469 253.144714,203.749847 
	C248.206146,204.531570 243.049744,203.936966 237.377182,203.936966 
	C246.257782,201.925735 254.744675,200.003677 263.616272,198.041306 
	C264.000977,198.000992 264.014923,198.014969 264.014923,198.014969 
z"/>
<path fill="none" opacity="1.000000" stroke="none" 
	d="
M239.972946,177.235840 
	C238.270782,177.192459 236.568604,177.149063 234.444641,177.167297 
	C233.221481,176.578964 232.420151,175.928986 231.618805,175.279022 
	C231.843765,174.658218 232.068741,174.037430 232.293701,173.416626 
	C237.245667,174.183197 242.197617,174.949768 247.553131,176.080780 
	C247.956680,176.445221 247.934967,176.860855 247.934967,176.860855 
	C247.028076,177.022995 246.121201,177.185150 245.108521,177.680344 
	C244.558807,178.032639 244.114883,178.051895 243.221817,177.667206 
	C241.839432,177.254105 240.906189,177.244965 239.972946,177.235840 
z"/>
<path fill="none" opacity="1.000000" stroke="none" 
	d="
M243.991699,133.403290 
	C245.461105,129.540115 247.691162,128.820465 249.799881,131.475082 
	C251.327103,133.397690 252.228683,135.817276 253.914993,138.956787 
	C249.929504,136.793518 247.079498,135.246567 243.991699,133.403290 
z"/>
<path fill="none" opacity="1.000000" stroke="none" 
	d="
M244.651123,157.011902 
	C241.918716,157.011826 239.629410,157.011826 237.318192,157.011826 
	C237.735672,151.902695 237.735672,151.902695 249.716980,155.822830 
	C247.607864,156.365372 246.351028,156.688675 244.651123,157.011902 
z"/>
<path fill="#FAF8FB" opacity="1.000000" stroke="none" 
	d="
M247.996155,177.220154 
	C247.934967,176.860855 247.956680,176.445221 247.916992,176.240936 
	C250.562988,177.445557 253.248688,178.854431 255.969849,180.631561 
	C256.005310,180.999802 255.952637,181.058823 255.952637,181.058838 
	C253.320877,179.899033 250.689117,178.739227 247.996155,177.220154 
z"/>
<path fill="#FAF8FB" opacity="1.000000" stroke="none" 
	d="
M263.995209,197.004639 
	C264.427460,197.169769 264.864502,197.330261 265.301544,197.490738 
	C265.040344,197.658356 264.779144,197.825974 264.266418,198.004272 
	C264.014923,198.014969 264.000977,198.000992 263.994385,197.994232 
	C263.987793,197.987488 264.004211,197.489136 264.006897,197.239746 
	C264.009552,196.990372 264.000000,197.000000 263.995209,197.004639 
z"/>
<path fill="#FAF8FB" opacity="1.000000" stroke="none" 
	d="
M256.034790,180.973450 
	C256.177765,181.114517 256.291229,181.281952 256.404724,181.449387 
	C256.302460,181.410217 256.200226,181.371033 256.025299,181.195343 
	C255.952637,181.058823 256.005310,180.999802 256.034790,180.973450 
z"/>
<path fill="#FAF8FB" opacity="1.000000" stroke="none" 
	d="
M261.536377,184.556686 
	C261.471924,184.596573 261.600800,184.516800 261.536377,184.556686 
z"/>
<path fill="none" opacity="1.000000" stroke="none" 
	d="
M233.980621,287.329071 
	C234.035507,285.462372 234.247681,283.933594 234.548080,281.768982 
	C239.771454,287.046783 245.374344,288.437744 251.835800,287.488831 
	C254.983841,286.714172 257.918579,286.292297 260.853302,285.870392 
	C261.038666,286.065155 261.223999,286.259888 261.409363,286.454651 
	C258.975677,287.976990 256.708191,290.294128 254.071457,290.845581 
	C249.496094,291.802399 244.655853,292.136047 240.001160,291.773895 
	C237.952621,291.614502 236.086716,289.107910 233.980621,287.329071 
z"/>
<path fill="none" opacity="1.000000" stroke="none" 
	d="
M273.949829,273.603271 
	C273.942017,273.822510 273.563019,273.941620 273.365021,273.925842 
	C273.140411,273.203583 273.113800,272.497131 273.458252,271.241150 
	C273.517303,268.470764 273.205200,266.249878 272.893066,264.028992 
	C272.949615,263.569641 273.006165,263.110291 272.996521,262.038757 
	C272.638306,261.218323 272.346313,261.010101 272.054291,260.801880 
	C272.057312,260.389984 272.060333,259.978058 271.996521,258.996460 
	C271.637512,258.219421 271.345306,258.012115 271.053101,257.804779 
	C271.053101,257.804779 271.061005,257.371399 270.995819,256.900208 
	C270.632141,256.240173 270.333649,256.051331 270.035156,255.862488 
	C266.095551,250.816528 262.155975,245.770584 258.176636,240.395538 
	C258.136932,240.066467 258.568268,240.004776 258.776733,239.941498 
	C269.960449,245.595810 276.123535,254.331894 275.724060,267.525848 
	C275.337006,268.354218 275.229431,268.665894 275.121857,268.977570 
	C275.063934,269.689301 275.006012,270.401031 274.695801,271.576233 
	C274.336395,272.352295 274.229309,272.664825 274.122192,272.977356 
	C274.122192,272.977356 273.957642,273.384064 273.949829,273.603271 
z"/>
<path fill="#FAF8FB" opacity="1.000000" stroke="none" 
	d="
M272.617615,264.295074 
	C273.205200,266.249878 273.517303,268.470764 273.499084,270.889526 
	C272.893250,268.912018 272.617706,266.736572 272.617615,264.295074 
z"/>
<path fill="#FAF8FB" opacity="1.000000" stroke="none" 
	d="
M272.128052,261.045837 
	C272.346313,261.010101 272.638306,261.218323 272.911743,261.699463 
	C272.662720,261.744812 272.432251,261.517303 272.128052,261.045837 
z"/>
<path fill="#FAF8FB" opacity="1.000000" stroke="none" 
	d="
M271.129089,258.047119 
	C271.345306,258.012115 271.637512,258.219421 271.911133,258.699463 
	C271.663391,258.744568 271.434265,258.517029 271.129089,258.047119 
z"/>
<path fill="#FAF8FB" opacity="1.000000" stroke="none" 
	d="
M270.119568,256.094391 
	C270.333649,256.051331 270.632141,256.240173 270.911346,256.700623 
	C270.533844,256.894165 270.304504,256.678864 270.119568,256.094391 
z"/>
<path fill="#FAF8FB" opacity="1.000000" stroke="none" 
	d="
M274.333008,272.850098 
	C274.229309,272.664825 274.336395,272.352295 274.695648,271.935303 
	C274.881317,272.159088 274.746643,272.456390 274.333008,272.850098 
z"/>
<path fill="#FAF8FB" opacity="1.000000" stroke="none" 
	d="
M275.329498,268.856323 
	C275.229431,268.665894 275.337006,268.354218 275.704712,267.960480 
	C275.880432,268.192993 275.737854,268.478546 275.329498,268.856323 
z"/>
<path fill="#CBA5DB" opacity="1.000000" stroke="none" 
	d="
M239.974869,177.559631 
	C240.906189,177.244965 241.839432,177.254105 242.894531,177.600800 
	C242.367355,178.506607 241.718353,179.074860 241.069351,179.643112 
	C240.705170,179.056564 240.340973,178.470001 239.974869,177.559631 
z"/>
<path fill="#CBA5DB" opacity="1.000000" stroke="none" 
	d="
M273.006073,280.007812 
	C272.903809,280.042175 272.794647,280.068176 272.833679,280.039734 
	C272.981873,279.985352 272.999146,279.999420 273.006073,280.007812 
z"/>
</svg>